SplineFontDB: 3.2
FontName: FdSymbolE-Book
FullName: FdSymbolE-Book
FamilyName: FdSymbolE
Weight: Book
Copyright: Copyright (c) 2012, Michael Ummels. This Font Software is licensed under the SIL Open Font License, Version 1.1.
Version: 1.008
ItalicAngle: 0
UnderlinePosition: -100
UnderlineWidth: 50
Ascent: 800
Descent: 200
InvalidEm: 0
LayerCount: 2
Layer: 0 0 "Back" 1
Layer: 1 0 "Fore" 0
OS2Version: 0
OS2_WeightWidthSlopeOnly: 0
OS2_UseTypoMetrics: 0
CreationTime: 1739777137
ModificationTime: 1739777137
OS2TypoAscent: 0
OS2TypoAOffset: 1
OS2TypoDescent: 0
OS2TypoDOffset: 1
OS2TypoLinegap: 0
OS2WinAscent: 0
OS2WinAOffset: 1
OS2WinDescent: 0
OS2WinDOffset: 1
HheadAscent: 0
HheadAOffset: 1
HheadDescent: 0
HheadDOffset: 1
OS2Vendor: 'PfEd'
DEI: 91125
Encoding: Custom
UnicodeInterp: none
NameList: AGL For New Fonts
DisplaySize: -48
AntiAlias: 1
FitToEm: 0
BeginPrivate: 2
BlueValues 31 [-10 0 546 556 707 717 754 764]
OtherBlues 11 [-230 -220]
EndPrivate
BeginChars: 256 128

StartChar: sym090
Encoding: 0 -1 0
Width: 1250
Flags: HW
HStem: 268 64<90 593 657 1160>
VStem: 593 64<-235 268 332 835>
LayerCount: 2
Fore
SplineSet
593 835 m 1
 657 835 l 1
 657 332 l 1
 1160 332 l 1
 1160 268 l 1
 657 268 l 1
 657 -235 l 1
 593 -235 l 1
 593 268 l 1
 90 268 l 1
 90 332 l 1
 593 332 l 1
 593 835 l 1
EndSplineSet
EndChar

StartChar: sym090.disp
Encoding: 1 -1 1
Width: 1678
Flags: HW
HStem: 268 64<90 807 871 1588>
VStem: 807 64<-449 268 332 1049>
LayerCount: 2
Fore
SplineSet
807 1049 m 1
 871 1049 l 1
 871 332 l 1
 1588 332 l 1
 1588 268 l 1
 871 268 l 1
 871 -449 l 1
 807 -449 l 1
 807 268 l 1
 90 268 l 1
 90 332 l 1
 807 332 l 1
 807 1049 l 1
EndSplineSet
EndChar

StartChar: uni2A09
Encoding: 2 10761 2
Width: 1250
Flags: HW
LayerCount: 2
Fore
SplineSet
1160 -190 m 1
 1115 -235 l 1
 625 255 l 1
 135 -235 l 1
 90 -190 l 1
 580 300 l 1
 90 790 l 1
 135 835 l 1
 625 345 l 1
 1115 835 l 1
 1160 790 l 1
 670 300 l 1
 1160 -190 l 1
EndSplineSet
EndChar

StartChar: uni2A09.disp
Encoding: 3 -1 3
Width: 1678
Flags: HW
LayerCount: 2
Fore
SplineSet
1588 -404 m 1
 1543 -449 l 1
 839 255 l 1
 135 -449 l 1
 90 -404 l 1
 794 300 l 1
 90 1004 l 1
 135 1049 l 1
 839 345 l 1
 1543 1049 l 1
 1588 1004 l 1
 884 300 l 1
 1588 -404 l 1
EndSplineSet
EndChar

StartChar: uni22C0
Encoding: 4 8896 4
Width: 900
Flags: HW
LayerCount: 2
Fore
SplineSet
805 -216 m 1
 744 -235 l 1
 450 697 l 1
 156 -235 l 1
 95 -216 l 1
 427 835 l 1
 473 835 l 1
 805 -216 l 1
EndSplineSet
EndChar

StartChar: uni22C0.disp
Encoding: 5 -1 5
Width: 1188
Flags: HW
LayerCount: 2
Fore
SplineSet
1093 -429 m 1
 1032 -449 l 1
 594 913 l 1
 156 -449 l 1
 95 -429 l 1
 571 1049 l 1
 617 1049 l 1
 1093 -429 l 1
EndSplineSet
EndChar

StartChar: uni22C1
Encoding: 6 8897 6
Width: 900
Flags: HW
LayerCount: 2
Fore
SplineSet
95 816 m 1
 156 835 l 1
 450 -97 l 1
 744 835 l 1
 805 816 l 1
 473 -235 l 1
 427 -235 l 1
 95 816 l 1
EndSplineSet
EndChar

StartChar: uni22C1.disp
Encoding: 7 -1 7
Width: 1188
Flags: HW
LayerCount: 2
Fore
SplineSet
95 1029 m 1
 156 1049 l 1
 594 -313 l 1
 1032 1049 l 1
 1093 1029 l 1
 617 -449 l 1
 571 -449 l 1
 95 1029 l 1
EndSplineSet
EndChar

StartChar: sym091
Encoding: 8 -1 8
Width: 900
Flags: HW
HStem: -42 150<413.041 486.959>
VStem: 375 150<-4.66563 69.8196>
LayerCount: 2
Fore
SplineSet
805 -216 m 1
 744 -235 l 1
 450 697 l 1
 156 -235 l 1
 95 -216 l 1
 427 835 l 1
 473 835 l 1
 805 -216 l 1
450 108 m 0
 473 108 525 52 525 33 c 0
 525 12 473 -42 450 -42 c 0
 427 -42 375 12 375 33 c 0
 375 52 427 108 450 108 c 0
EndSplineSet
EndChar

StartChar: sym091.disp
Encoding: 9 -1 9
Width: 1188
Flags: HW
HStem: -149 150<557.367 630.633>
VStem: 519 150<-110.633 -37.1804>
LayerCount: 2
Fore
SplineSet
1093 -429 m 1
 1032 -449 l 1
 594 913 l 1
 156 -449 l 1
 95 -429 l 1
 571 1049 l 1
 617 1049 l 1
 1093 -429 l 1
594 1 m 0
 617 1 669 -55 669 -74 c 0
 669 -89 652 -106 639 -119 c 0
 626 -133 609 -149 594 -149 c 0
 579 -149 562 -133 549 -119 c 0
 536 -106 519 -89 519 -74 c 0
 519 -55 571 1 594 1 c 0
EndSplineSet
EndChar

StartChar: sym092
Encoding: 10 -1 10
Width: 900
Flags: HW
HStem: 493 150<413.041 486.959>
VStem: 375 150<530.334 604.82>
LayerCount: 2
Fore
SplineSet
95 816 m 1
 156 835 l 1
 450 -97 l 1
 744 835 l 1
 805 816 l 1
 473 -235 l 1
 427 -235 l 1
 95 816 l 1
450 643 m 0
 473 643 525 587 525 568 c 0
 525 547 473 493 450 493 c 0
 427 493 375 547 375 568 c 0
 375 587 427 643 450 643 c 0
EndSplineSet
EndChar

StartChar: sym092.disp
Encoding: 11 -1 11
Width: 1188
Flags: HW
HStem: 599 150<557.367 630.633>
VStem: 519 150<637.18 710.633>
LayerCount: 2
Fore
SplineSet
95 1029 m 1
 156 1049 l 1
 594 -313 l 1
 1032 1049 l 1
 1093 1029 l 1
 617 -449 l 1
 571 -449 l 1
 95 1029 l 1
594 599 m 0
 571 599 519 655 519 674 c 0
 519 689 536 706 549 719 c 0
 562 733 579 749 594 749 c 0
 609 749 626 733 639 719 c 0
 652 706 669 689 669 674 c 0
 669 655 617 599 594 599 c 0
EndSplineSet
EndChar

StartChar: uni2A07
Encoding: 12 10759 12
Width: 1140
Flags: HW
LayerCount: 2
Fore
SplineSet
1045 -216 m 1
 984 -235 l 1
 690 697 l 1
 603 422 l 1
 805 -216 l 1
 744 -235 l 1
 570 317 l 1
 396 -235 l 1
 335 -216 l 1
 537 422 l 1
 450 697 l 1
 156 -235 l 1
 95 -216 l 1
 427 835 l 1
 473 835 l 1
 570 528 l 1
 667 835 l 1
 713 835 l 1
 1045 -216 l 1
EndSplineSet
EndChar

StartChar: uni2A07.disp
Encoding: 13 -1 13
Width: 1524
Flags: HW
LayerCount: 2
Fore
SplineSet
1429 -429 m 1
 1368 -449 l 1
 930 913 l 1
 795 495 l 1
 1093 -429 l 1
 1032 -449 l 1
 762 391 l 1
 492 -449 l 1
 431 -429 l 1
 729 495 l 1
 594 913 l 1
 156 -449 l 1
 95 -429 l 1
 571 1049 l 1
 617 1049 l 1
 762 599 l 1
 907 1049 l 1
 953 1049 l 1
 1429 -429 l 1
EndSplineSet
EndChar

StartChar: uni2A08
Encoding: 14 10760 14
Width: 1140
Flags: HW
LayerCount: 2
Fore
SplineSet
335 816 m 1
 396 835 l 1
 570 283 l 1
 744 835 l 1
 805 816 l 1
 603 178 l 1
 690 -97 l 1
 984 835 l 1
 1045 816 l 1
 713 -235 l 1
 667 -235 l 1
 570 72 l 1
 473 -235 l 1
 427 -235 l 1
 95 816 l 1
 156 835 l 1
 450 -97 l 1
 537 178 l 1
 335 816 l 1
EndSplineSet
EndChar

StartChar: uni2A08.disp
Encoding: 15 -1 15
Width: 1524
Flags: HW
LayerCount: 2
Fore
SplineSet
431 1029 m 1
 492 1049 l 1
 762 209 l 1
 1032 1049 l 1
 1093 1029 l 1
 795 105 l 1
 930 -313 l 1
 1368 1049 l 1
 1429 1029 l 1
 953 -449 l 1
 907 -449 l 1
 762 1 l 1
 617 -449 l 1
 571 -449 l 1
 95 1029 l 1
 156 1049 l 1
 594 -313 l 1
 729 105 l 1
 431 1029 l 1
EndSplineSet
EndChar

StartChar: sym093
Encoding: 16 -1 16
Width: 900
Flags: HW
VStem: 418 64<580.456 835>
LayerCount: 2
Fore
SplineSet
450 386 m 1
 409 150 320 -71 144 -235 c 1
 100 -188 l 1
 365 59 418 439 418 803 c 2
 418 835 l 1
 482 835 l 1
 482 803 l 2
 482 439 535 59 800 -188 c 1
 756 -235 l 1
 580 -71 491 150 450 386 c 1
EndSplineSet
EndChar

StartChar: sym093.disp
Encoding: 17 -1 17
Width: 1188
Flags: HW
VStem: 562 64<796.431 1049>
LayerCount: 2
Fore
SplineSet
594 518 m 1
 542 150 415 -196 144 -449 c 1
 100 -402 l 1
 480 -48 562 496 562 1017 c 2
 562 1049 l 1
 626 1049 l 1
 626 1017 l 2
 626 496 708 -48 1088 -402 c 1
 1044 -449 l 1
 773 -196 646 150 594 518 c 1
EndSplineSet
EndChar

StartChar: sym094
Encoding: 18 -1 18
Width: 900
Flags: HW
VStem: 418 64<-235 19.5442>
LayerCount: 2
Fore
SplineSet
450 214 m 1
 491 450 580 671 756 835 c 1
 800 788 l 1
 535 541 482 161 482 -203 c 2
 482 -235 l 1
 418 -235 l 1
 418 -203 l 2
 418 161 365 541 100 788 c 1
 144 835 l 1
 320 671 409 450 450 214 c 1
EndSplineSet
EndChar

StartChar: sym094.disp
Encoding: 19 -1 19
Width: 1188
Flags: HW
VStem: 562 64<-449 -196.431>
LayerCount: 2
Fore
SplineSet
594 82 m 1
 646 450 773 796 1044 1049 c 1
 1088 1002 l 1
 708 648 626 104 626 -417 c 2
 626 -449 l 1
 562 -449 l 1
 562 -417 l 2
 562 104 480 648 100 1002 c 1
 144 1049 l 1
 415 796 542 450 594 82 c 1
EndSplineSet
EndChar

StartChar: uni22C2
Encoding: 20 8898 20
Width: 900
Flags: HW
HStem: 771 64<330.376 569.624>
VStem: 90 64<-235 609.428> 746 64<-235 609.428>
LayerCount: 2
Fore
SplineSet
746 -235 m 1
 746 520 l 2
 746 668 606 771 450 771 c 0
 294 771 154 668 154 520 c 2
 154 -235 l 1
 90 -235 l 1
 90 520 l 2
 90 703 259 835 450 835 c 0
 641 835 810 703 810 520 c 2
 810 -235 l 1
 746 -235 l 1
EndSplineSet
EndChar

StartChar: uni22C2.disp
Encoding: 21 -1 21
Width: 1188
Flags: HW
HStem: 985 64<447.345 740.655>
VStem: 90 64<-449 720.83> 1034 64<-449 720.83>
LayerCount: 2
Fore
SplineSet
1034 -449 m 1
 1034 606 l 2
 1034 828 827 985 594 985 c 0
 361 985 154 828 154 606 c 2
 154 -449 l 1
 90 -449 l 1
 90 606 l 2
 90 863 326 1049 594 1049 c 0
 862 1049 1098 863 1098 606 c 2
 1098 -449 l 1
 1034 -449 l 1
EndSplineSet
EndChar

StartChar: uni22C3
Encoding: 22 8899 22
Width: 900
Flags: HW
HStem: -235 64<330.376 569.624>
VStem: 90 64<-9.42833 835> 746 64<-9.42833 835>
LayerCount: 2
Fore
SplineSet
154 835 m 1
 154 80 l 2
 154 -68 294 -171 450 -171 c 0
 606 -171 746 -68 746 80 c 2
 746 835 l 1
 810 835 l 1
 810 80 l 2
 810 -103 641 -235 450 -235 c 0
 259 -235 90 -103 90 80 c 2
 90 835 l 1
 154 835 l 1
EndSplineSet
EndChar

StartChar: uni22C3.disp
Encoding: 23 -1 23
Width: 1188
Flags: HW
HStem: -449 64<447.345 740.655>
VStem: 90 64<-120.83 1049> 1034 64<-120.83 1049>
LayerCount: 2
Fore
SplineSet
154 1049 m 1
 154 -6 l 2
 154 -228 361 -385 594 -385 c 0
 827 -385 1034 -228 1034 -6 c 2
 1034 1049 l 1
 1098 1049 l 1
 1098 -6 l 2
 1098 -263 862 -449 594 -449 c 0
 326 -449 90 -263 90 -6 c 2
 90 1049 l 1
 154 1049 l 1
EndSplineSet
EndChar

StartChar: sym095
Encoding: 24 -1 24
Width: 900
Flags: HW
HStem: 91 150<413.471 486.529> 771 64<330.376 569.624>
VStem: 90 64<-235 609.428> 375 150<128.757 202.633> 746 64<-235 609.428>
CounterMasks: 1 38
LayerCount: 2
Fore
SplineSet
746 -235 m 1
 746 520 l 2
 746 668 606 771 450 771 c 0
 294 771 154 668 154 520 c 2
 154 -235 l 1
 90 -235 l 1
 90 520 l 2
 90 703 259 835 450 835 c 0
 641 835 810 703 810 520 c 2
 810 -235 l 1
 746 -235 l 1
450 91 m 0
 428 91 375 146 375 166 c 0
 375 181 392 198 405 211 c 0
 418 225 435 241 450 241 c 0
 465 241 482 225 495 211 c 0
 508 198 525 181 525 166 c 0
 525 146 472 91 450 91 c 0
EndSplineSet
EndChar

StartChar: sym095.disp
Encoding: 25 -1 25
Width: 1188
Flags: HW
HStem: 38 150<557.471 630.529> 985 64<447.345 740.655>
VStem: 90 64<-449 720.83> 519 150<76.3667 150.243> 1034 64<-449 720.83>
CounterMasks: 1 38
LayerCount: 2
Fore
SplineSet
1034 -449 m 1
 1034 606 l 2
 1034 828 827 985 594 985 c 0
 361 985 154 828 154 606 c 2
 154 -449 l 1
 90 -449 l 1
 90 606 l 2
 90 863 326 1049 594 1049 c 0
 862 1049 1098 863 1098 606 c 2
 1098 -449 l 1
 1034 -449 l 1
594 188 m 0
 616 188 669 133 669 113 c 0
 669 98 652 81 639 68 c 0
 626 54 609 38 594 38 c 0
 579 38 562 54 549 68 c 0
 536 81 519 98 519 113 c 0
 519 133 572 188 594 188 c 0
EndSplineSet
EndChar

StartChar: uni2A03
Encoding: 26 10755 26
Width: 900
Flags: HW
HStem: -235 64<330.376 569.624> 359 150<413.471 486.529>
VStem: 90 64<-9.42833 835> 375 150<397.367 471.243> 746 64<-9.42833 835>
CounterMasks: 1 38
LayerCount: 2
Fore
SplineSet
154 835 m 1
 154 80 l 2
 154 -68 294 -171 450 -171 c 0
 606 -171 746 -68 746 80 c 2
 746 835 l 1
 810 835 l 1
 810 80 l 2
 810 -103 641 -235 450 -235 c 0
 259 -235 90 -103 90 80 c 2
 90 835 l 1
 154 835 l 1
450 509 m 0
 472 509 525 454 525 434 c 0
 525 419 508 402 495 389 c 0
 482 375 465 359 450 359 c 0
 435 359 418 375 405 389 c 0
 392 402 375 419 375 434 c 0
 375 454 428 509 450 509 c 0
EndSplineSet
EndChar

StartChar: uni2A03.disp
Encoding: 27 -1 27
Width: 1188
Flags: HW
HStem: -449 64<447.345 740.655> 412 150<557.471 630.529>
VStem: 90 64<-120.83 1049> 519 150<449.757 523.633> 1034 64<-120.83 1049>
CounterMasks: 1 38
LayerCount: 2
Fore
SplineSet
154 1049 m 1
 154 -6 l 2
 154 -228 361 -385 594 -385 c 0
 827 -385 1034 -228 1034 -6 c 2
 1034 1049 l 1
 1098 1049 l 1
 1098 -6 l 2
 1098 -263 862 -449 594 -449 c 0
 326 -449 90 -263 90 -6 c 2
 90 1049 l 1
 154 1049 l 1
594 412 m 0
 572 412 519 467 519 487 c 0
 519 502 536 519 549 532 c 0
 562 546 579 562 594 562 c 0
 609 562 626 546 639 532 c 0
 652 519 669 502 669 487 c 0
 669 467 616 412 594 412 c 0
EndSplineSet
EndChar

StartChar: sym096
Encoding: 28 -1 28
Width: 900
Flags: HW
HStem: 178 64<270 418 482 630> 771 64<330.376 569.624>
VStem: 90 64<-235 609.428> 418 64<30 178 242 390> 746 64<-235 609.428>
CounterMasks: 1 38
LayerCount: 2
Fore
SplineSet
746 -235 m 1
 746 520 l 2
 746 668 606 771 450 771 c 0
 294 771 154 668 154 520 c 2
 154 -235 l 1
 90 -235 l 1
 90 520 l 2
 90 703 259 835 450 835 c 0
 641 835 810 703 810 520 c 2
 810 -235 l 1
 746 -235 l 1
418 390 m 1
 482 390 l 1
 482 242 l 1
 630 242 l 1
 630 178 l 1
 482 178 l 1
 482 30 l 1
 418 30 l 1
 418 178 l 1
 270 178 l 1
 270 242 l 1
 418 242 l 1
 418 390 l 1
EndSplineSet
EndChar

StartChar: sym096.disp
Encoding: 29 -1 29
Width: 1188
Flags: HW
HStem: 142 64<342 562 626 846> 985 64<447.345 740.655>
VStem: 90 64<-449 720.83> 562 64<-78 142 206 426> 1034 64<-449 720.83>
CounterMasks: 1 38
LayerCount: 2
Fore
SplineSet
1034 -449 m 1
 1034 606 l 2
 1034 828 827 985 594 985 c 0
 361 985 154 828 154 606 c 2
 154 -449 l 1
 90 -449 l 1
 90 606 l 2
 90 863 326 1049 594 1049 c 0
 862 1049 1098 863 1098 606 c 2
 1098 -449 l 1
 1034 -449 l 1
562 426 m 1
 626 426 l 1
 626 206 l 1
 846 206 l 1
 846 142 l 1
 626 142 l 1
 626 -78 l 1
 562 -78 l 1
 562 142 l 1
 342 142 l 1
 342 206 l 1
 562 206 l 1
 562 426 l 1
EndSplineSet
EndChar

StartChar: uni2A04
Encoding: 30 10756 30
Width: 900
Flags: HW
HStem: -235 64<330.376 569.624> 358 64<270 418 482 630>
VStem: 90 64<-9.42833 835> 418 64<210 358 422 570> 746 64<-9.42833 835>
CounterMasks: 1 38
LayerCount: 2
Fore
SplineSet
154 835 m 1
 154 80 l 2
 154 -68 294 -171 450 -171 c 0
 606 -171 746 -68 746 80 c 2
 746 835 l 1
 810 835 l 1
 810 80 l 2
 810 -103 641 -235 450 -235 c 0
 259 -235 90 -103 90 80 c 2
 90 835 l 1
 154 835 l 1
418 570 m 1
 482 570 l 1
 482 422 l 1
 630 422 l 1
 630 358 l 1
 482 358 l 1
 482 210 l 1
 418 210 l 1
 418 358 l 1
 270 358 l 1
 270 422 l 1
 418 422 l 1
 418 570 l 1
EndSplineSet
EndChar

StartChar: uni2A04.disp
Encoding: 31 -1 31
Width: 1188
Flags: HW
HStem: -449 64<447.345 740.655> 394 64<342 562 626 846>
VStem: 90 64<-120.83 1049> 562 64<174 394 458 678> 1034 64<-120.83 1049>
CounterMasks: 1 38
LayerCount: 2
Fore
SplineSet
154 1049 m 1
 154 -6 l 2
 154 -228 361 -385 594 -385 c 0
 827 -385 1034 -228 1034 -6 c 2
 1034 1049 l 1
 1098 1049 l 1
 1098 -6 l 2
 1098 -263 862 -449 594 -449 c 0
 326 -449 90 -263 90 -6 c 2
 90 1049 l 1
 154 1049 l 1
562 678 m 1
 626 678 l 1
 626 458 l 1
 846 458 l 1
 846 394 l 1
 626 394 l 1
 626 174 l 1
 562 174 l 1
 562 394 l 1
 342 394 l 1
 342 458 l 1
 562 458 l 1
 562 678 l 1
EndSplineSet
EndChar

StartChar: uni2A05
Encoding: 32 10757 32
Width: 900
Flags: HW
HStem: 771 64<154 746>
VStem: 90 64<-235 771> 746 64<-235 771>
LayerCount: 2
Fore
SplineSet
154 -235 m 1
 90 -235 l 1
 90 835 l 1
 810 835 l 1
 810 -235 l 1
 746 -235 l 1
 746 771 l 1
 154 771 l 1
 154 -235 l 1
EndSplineSet
EndChar

StartChar: uni2A05.disp
Encoding: 33 -1 33
Width: 1188
Flags: HW
HStem: 985 64<154 1034>
VStem: 90 64<-449 985> 1034 64<-449 985>
LayerCount: 2
Fore
SplineSet
154 -449 m 1
 90 -449 l 1
 90 1049 l 1
 1098 1049 l 1
 1098 -449 l 1
 1034 -449 l 1
 1034 985 l 1
 154 985 l 1
 154 -449 l 1
EndSplineSet
EndChar

StartChar: uni2A06
Encoding: 34 10758 34
Width: 900
Flags: HW
HStem: -235 64<154 746>
VStem: 90 64<-171 835> 746 64<-171 835>
LayerCount: 2
Fore
SplineSet
90 835 m 1
 154 835 l 1
 154 -171 l 1
 746 -171 l 1
 746 835 l 1
 810 835 l 1
 810 -235 l 1
 90 -235 l 1
 90 835 l 1
EndSplineSet
EndChar

StartChar: uni2A06.disp
Encoding: 35 -1 35
Width: 1188
Flags: HW
HStem: -449 64<154 1034>
VStem: 90 64<-385 1049> 1034 64<-385 1049>
LayerCount: 2
Fore
SplineSet
90 1049 m 1
 154 1049 l 1
 154 -385 l 1
 1034 -385 l 1
 1034 1049 l 1
 1098 1049 l 1
 1098 -449 l 1
 90 -449 l 1
 90 1049 l 1
EndSplineSet
EndChar

StartChar: sym097
Encoding: 36 -1 36
Width: 900
Flags: HW
HStem: 91 150<413.471 486.529> 771 64<154 746>
VStem: 90 64<-235 771> 375 150<128.757 202.633> 746 64<-235 771>
CounterMasks: 1 38
LayerCount: 2
Fore
SplineSet
154 -235 m 1
 90 -235 l 1
 90 835 l 1
 810 835 l 1
 810 -235 l 1
 746 -235 l 1
 746 771 l 1
 154 771 l 1
 154 -235 l 1
450 91 m 0
 428 91 375 146 375 166 c 0
 375 181 392 198 405 211 c 0
 418 225 435 241 450 241 c 0
 465 241 482 225 495 211 c 0
 508 198 525 181 525 166 c 0
 525 146 472 91 450 91 c 0
EndSplineSet
EndChar

StartChar: sym097.disp
Encoding: 37 -1 37
Width: 1188
Flags: HW
HStem: 38 150<557.471 630.529> 985 64<154 1034>
VStem: 90 64<-449 985> 519 150<76.3667 150.243> 1034 64<-449 985>
CounterMasks: 1 38
LayerCount: 2
Fore
SplineSet
154 -449 m 1
 90 -449 l 1
 90 1049 l 1
 1098 1049 l 1
 1098 -449 l 1
 1034 -449 l 1
 1034 985 l 1
 154 985 l 1
 154 -449 l 1
594 188 m 0
 616 188 669 133 669 113 c 0
 669 98 652 81 639 68 c 0
 626 54 609 38 594 38 c 0
 579 38 562 54 549 68 c 0
 536 81 519 98 519 113 c 0
 519 133 572 188 594 188 c 0
EndSplineSet
EndChar

StartChar: sym098
Encoding: 38 -1 38
Width: 900
Flags: HW
HStem: -235 64<154 746> 359 150<413.471 486.529>
VStem: 90 64<-171 835> 375 150<397.367 471.243> 746 64<-171 835>
CounterMasks: 1 38
LayerCount: 2
Fore
SplineSet
90 835 m 1
 154 835 l 1
 154 -171 l 1
 746 -171 l 1
 746 835 l 1
 810 835 l 1
 810 -235 l 1
 90 -235 l 1
 90 835 l 1
450 509 m 0
 472 509 525 454 525 434 c 0
 525 419 508 402 495 389 c 0
 482 375 465 359 450 359 c 0
 435 359 418 375 405 389 c 0
 392 402 375 419 375 434 c 0
 375 454 428 509 450 509 c 0
EndSplineSet
EndChar

StartChar: sym098.disp
Encoding: 39 -1 39
Width: 1188
Flags: HW
HStem: -449 64<154 1034> 412 150<557.471 630.529>
VStem: 90 64<-385 1049> 519 150<449.757 523.633> 1034 64<-385 1049>
CounterMasks: 1 38
LayerCount: 2
Fore
SplineSet
90 1049 m 1
 154 1049 l 1
 154 -385 l 1
 1034 -385 l 1
 1034 1049 l 1
 1098 1049 l 1
 1098 -449 l 1
 90 -449 l 1
 90 1049 l 1
594 412 m 0
 572 412 519 467 519 487 c 0
 519 502 536 519 549 532 c 0
 562 546 579 562 594 562 c 0
 609 562 626 546 639 532 c 0
 652 519 669 502 669 487 c 0
 669 467 616 412 594 412 c 0
EndSplineSet
EndChar

StartChar: sym099
Encoding: 40 -1 40
Width: 900
Flags: HW
HStem: 178 64<270 418 482 630> 771 64<154 746>
VStem: 90 64<-235 771> 418 64<30 178 242 390> 746 64<-235 771>
CounterMasks: 1 38
LayerCount: 2
Fore
SplineSet
154 -235 m 1
 90 -235 l 1
 90 835 l 1
 810 835 l 1
 810 -235 l 1
 746 -235 l 1
 746 771 l 1
 154 771 l 1
 154 -235 l 1
418 390 m 1
 482 390 l 1
 482 242 l 1
 630 242 l 1
 630 178 l 1
 482 178 l 1
 482 30 l 1
 418 30 l 1
 418 178 l 1
 270 178 l 1
 270 242 l 1
 418 242 l 1
 418 390 l 1
EndSplineSet
EndChar

StartChar: sym099.disp
Encoding: 41 -1 41
Width: 1188
Flags: HW
HStem: 142 64<342 562 626 846> 985 64<154 1034>
VStem: 90 64<-449 985> 562 64<-78 142 206 426> 1034 64<-449 985>
CounterMasks: 1 38
LayerCount: 2
Fore
SplineSet
154 -449 m 1
 90 -449 l 1
 90 1049 l 1
 1098 1049 l 1
 1098 -449 l 1
 1034 -449 l 1
 1034 985 l 1
 154 985 l 1
 154 -449 l 1
562 426 m 1
 626 426 l 1
 626 206 l 1
 846 206 l 1
 846 142 l 1
 626 142 l 1
 626 -78 l 1
 562 -78 l 1
 562 142 l 1
 342 142 l 1
 342 206 l 1
 562 206 l 1
 562 426 l 1
EndSplineSet
EndChar

StartChar: sym09A
Encoding: 42 -1 42
Width: 900
Flags: HW
HStem: -235 64<154 746> 358 64<270 418 482 630>
VStem: 90 64<-171 835> 418 64<210 358 422 570> 746 64<-171 835>
CounterMasks: 1 38
LayerCount: 2
Fore
SplineSet
90 835 m 1
 154 835 l 1
 154 -171 l 1
 746 -171 l 1
 746 835 l 1
 810 835 l 1
 810 -235 l 1
 90 -235 l 1
 90 835 l 1
418 570 m 1
 482 570 l 1
 482 422 l 1
 630 422 l 1
 630 358 l 1
 482 358 l 1
 482 210 l 1
 418 210 l 1
 418 358 l 1
 270 358 l 1
 270 422 l 1
 418 422 l 1
 418 570 l 1
EndSplineSet
EndChar

StartChar: sym09A.disp
Encoding: 43 -1 43
Width: 1188
Flags: HW
HStem: -449 64<154 1034> 394 64<342 562 626 846>
VStem: 90 64<-385 1049> 562 64<174 394 458 678> 1034 64<-385 1049>
CounterMasks: 1 38
LayerCount: 2
Fore
SplineSet
90 1049 m 1
 154 1049 l 1
 154 -385 l 1
 1034 -385 l 1
 1034 1049 l 1
 1098 1049 l 1
 1098 -449 l 1
 90 -449 l 1
 90 1049 l 1
562 678 m 1
 626 678 l 1
 626 458 l 1
 846 458 l 1
 846 394 l 1
 626 394 l 1
 626 174 l 1
 562 174 l 1
 562 394 l 1
 342 394 l 1
 342 458 l 1
 562 458 l 1
 562 678 l 1
EndSplineSet
EndChar

StartChar: uni2A01
Encoding: 44 10753 44
Width: 1250
Flags: HW
HStem: -235 65<491.453 593 657 758.547> 268 64<155 593 657 1095> 770 65<491.453 593 657 758.547>
VStem: 90 65<166.453 268 332 433.547> 593 64<-170 268 332 770> 1095 65<166.453 268 332 433.547>
CounterMasks: 1 fc
LayerCount: 2
Fore
SplineSet
657 332 m 1
 1095 332 l 1
 1079 567 892 754 657 770 c 1
 657 332 l 1
593 332 m 1
 593 770 l 1
 358 754 171 567 155 332 c 1
 593 332 l 1
657 268 m 1
 657 -170 l 1
 892 -154 1079 33 1095 268 c 1
 657 268 l 1
593 268 m 1
 155 268 l 1
 171 33 358 -154 593 -170 c 1
 593 268 l 1
625 835 m 0
 920 835 1160 595 1160 300 c 0
 1160 5 920 -235 625 -235 c 0
 330 -235 90 5 90 300 c 0
 90 595 330 835 625 835 c 0
EndSplineSet
EndChar

StartChar: uni2A01.disp
Encoding: 45 -1 45
Width: 1678
Flags: HW
HStem: -449 65<678.291 807 871 999.709> 268 64<155 807 871 1523> 984 65<678.291 807 871 999.709>
VStem: 90 65<139.291 268 332 460.709> 807 64<-384 268 332 984> 1523 65<139.291 268 332 460.709>
CounterMasks: 1 fc
LayerCount: 2
Fore
SplineSet
871 332 m 1
 1523 332 l 1
 1507 685 1224 968 871 984 c 1
 871 332 l 1
807 332 m 1
 807 984 l 1
 454 968 171 685 155 332 c 1
 807 332 l 1
871 268 m 1
 871 -384 l 1
 1224 -368 1507 -85 1523 268 c 1
 871 268 l 1
807 268 m 1
 155 268 l 1
 171 -85 454 -368 807 -384 c 1
 807 268 l 1
839 1049 m 0
 1253 1049 1588 714 1588 300 c 0
 1588 -114 1253 -449 839 -449 c 0
 425 -449 90 -114 90 300 c 0
 90 714 425 1049 839 1049 c 0
EndSplineSet
EndChar

StartChar: uni2A02
Encoding: 46 10754 46
Width: 1250
Flags: HW
HStem: -235 64<487.75 762.25> 771 64<487.75 762.25>
VStem: 90 64<162.75 437.25> 1096 64<162.75 437.25>
LayerCount: 2
Fore
SplineSet
625 345 m 1
 935 655 l 1
 850 729 739 771 625 771 c 0
 511 771 400 729 315 655 c 1
 625 345 l 1
580 300 m 1
 270 610 l 1
 196 525 154 414 154 300 c 0
 154 186 196 75 270 -10 c 1
 580 300 l 1
670 300 m 1
 980 -10 l 1
 1054 75 1096 186 1096 300 c 0
 1096 414 1054 525 980 610 c 1
 670 300 l 1
625 255 m 1
 315 -55 l 1
 400 -129 511 -171 625 -171 c 0
 739 -171 850 -129 935 -55 c 1
 625 255 l 1
625 835 m 0
 920 835 1160 595 1160 300 c 0
 1160 5 920 -235 625 -235 c 0
 330 -235 90 5 90 300 c 0
 90 595 330 835 625 835 c 0
EndSplineSet
EndChar

StartChar: uni2A02.disp
Encoding: 47 -1 47
Width: 1678
Flags: HW
HStem: -449 64<667.953 1010.05> 985 64<667.953 1010.05>
VStem: 90 64<128.953 471.047> 1524 64<128.953 471.047>
LayerCount: 2
Fore
SplineSet
839 346 m 1
 1300 807 l 1
 1175 922 1010 985 839 985 c 0
 668 985 503 922 378 807 c 1
 839 346 l 1
793 300 m 1
 332 761 l 1
 217 636 154 471 154 300 c 0
 154 129 217 -36 332 -161 c 1
 793 300 l 1
885 300 m 1
 1346 -161 l 1
 1461 -36 1524 129 1524 300 c 0
 1524 471 1461 636 1346 761 c 1
 885 300 l 1
839 254 m 1
 378 -207 l 1
 503 -322 668 -385 839 -385 c 0
 1010 -385 1175 -322 1300 -207 c 1
 839 254 l 1
839 1049 m 0
 1253 1049 1588 714 1588 300 c 0
 1588 -114 1253 -449 839 -449 c 0
 425 -449 90 -114 90 300 c 0
 90 714 425 1049 839 1049 c 0
EndSplineSet
EndChar

StartChar: uni2A00
Encoding: 48 10752 48
Width: 1250
Flags: HW
HStem: -235 64<488.219 761.781> 225 150<588.9 661.1> 771 64<488.219 761.781>
VStem: 90 64<163.219 436.781> 550 150<263.9 336.1> 1096 64<163.219 436.781>
CounterMasks: 1 fc
LayerCount: 2
Fore
SplineSet
625 835 m 0
 920 835 1160 595 1160 300 c 0
 1160 5 920 -235 625 -235 c 0
 330 -235 90 5 90 300 c 0
 90 595 330 835 625 835 c 0
625 -171 m 0
 885 -171 1096 40 1096 300 c 0
 1096 560 885 771 625 771 c 0
 365 771 154 560 154 300 c 0
 154 40 365 -171 625 -171 c 0
625 375 m 0
 646 375 700 321 700 300 c 0
 700 279 646 225 625 225 c 0
 604 225 550 279 550 300 c 0
 550 321 604 375 625 375 c 0
EndSplineSet
EndChar

StartChar: uni2A00.disp
Encoding: 49 -1 49
Width: 1678
Flags: HW
HStem: -449 64<668.828 1009.17> 225 150<802.9 875.1> 985 64<668.828 1009.17>
VStem: 90 64<129.828 470.172> 764 150<263.9 336.1> 1524 64<129.828 470.172>
CounterMasks: 1 fc
LayerCount: 2
Fore
SplineSet
839 1049 m 0
 1253 1049 1588 714 1588 300 c 0
 1588 -114 1253 -449 839 -449 c 0
 425 -449 90 -114 90 300 c 0
 90 714 425 1049 839 1049 c 0
839 -385 m 0
 1217 -385 1524 -78 1524 300 c 0
 1524 678 1217 985 839 985 c 0
 461 985 154 678 154 300 c 0
 154 -78 461 -385 839 -385 c 0
839 375 m 0
 860 375 914 321 914 300 c 0
 914 279 860 225 839 225 c 0
 818 225 764 279 764 300 c 0
 764 321 818 375 839 375 c 0
EndSplineSet
EndChar

StartChar: sym09B
Encoding: 50 -1 50
Width: 1250
Flags: HW
HStem: -235 66<481.363 583 667 768.078> 769 66<481.922 583 667 768.637>
VStem: 90 64<162.458 437.542> 583 84<-169 150.667 449.333 769> 592 66<-77.6667 242 358 677.667> 1096 64<162.458 437.542>
LayerCount: 2
Fore
SplineSet
658 358 m 1xec
 1010 571 l 1
 973 624 864 751 667 769 c 1xf4
 658 358 l 1xec
592 358 m 1xec
 583 769 l 1xf4
 519 763 354 733 240 571 c 1
 592 358 l 1xec
558 300 m 1
 198 498 l 1
 169 436 154 369 154 300 c 0
 154 231 169 164 198 102 c 1
 558 300 l 1
592 242 m 1xec
 240 29 l 1
 277 -24 386 -151 583 -169 c 1xf4
 592 242 l 1xec
658 242 m 1xec
 667 -169 l 1xf4
 731 -163 896 -133 1010 29 c 1
 658 242 l 1xec
692 300 m 1
 1052 102 l 1
 1081 164 1096 231 1096 300 c 0
 1096 369 1081 436 1052 498 c 1
 692 300 l 1
625 835 m 0
 920 835 1160 595 1160 300 c 0
 1160 5 920 -235 625 -235 c 0
 330 -235 90 5 90 300 c 0
 90 595 330 835 625 835 c 0
EndSplineSet
EndChar

StartChar: sym09B.disp
Encoding: 51 -1 51
Width: 1678
Flags: HW
HStem: -449 65<669.742 797 881 1008.26> 984 65<669.742 797 881 1008.26>
VStem: 90 64<129.231 470.769> 797 84<-384 103.667 496.333 984> 806 66<-244.667 243 357 844.667> 1524 64<129.231 470.769>
LayerCount: 2
Fore
SplineSet
872 357 m 1xec
 1410 678 l 1
 1359 755 1192 965 881 984 c 1xf4
 872 357 l 1xec
806 357 m 1xec
 797 984 l 1xf4
 705 978 441 939 268 678 c 1
 806 357 l 1xec
773 300 m 1
 226 606 l 1
 179 512 154 407 154 300 c 0
 154 193 179 88 226 -6 c 1
 773 300 l 1
806 243 m 1xec
 268 -78 l 1
 319 -155 486 -365 797 -384 c 1xf4
 806 243 l 1xec
872 243 m 1xec
 881 -384 l 1xf4
 973 -378 1237 -339 1410 -78 c 1
 872 243 l 1xec
905 300 m 1
 1452 -6 l 1
 1499 88 1524 193 1524 300 c 0
 1524 407 1499 512 1452 606 c 1
 905 300 l 1
839 1049 m 0
 1253 1049 1588 714 1588 300 c 0
 1588 -114 1253 -449 839 -449 c 0
 425 -449 90 -114 90 300 c 0
 90 714 425 1049 839 1049 c 0
EndSplineSet
EndChar

StartChar: product
Encoding: 52 8719 52
Width: 1080
Flags: HW
HStem: -235 39<97 150.125 300.375 354 726 779.625 929.875 983> 771 64<269 811> 795 40<92 153.974 926.026 988>
VStem: 181 88<-172.187 770.586> 811 88<-172.187 770.586>
LayerCount: 2
Fore
SplineSet
97 -235 m 1xd8
 90 -196 l 1
 129 -185 181 -171 181 -149 c 2
 181 749 l 2
 181 771 130 785 92 795 c 1
 90 835 l 1
 990 835 l 1
 988 795 l 1xb8
 950 785 899 771 899 749 c 2
 899 -149 l 2
 899 -171 951 -185 990 -196 c 1
 983 -235 l 1
 726 -235 l 1
 719 -196 l 1
 758 -185 811 -171 811 -149 c 2
 811 771 l 1
 269 771 l 1
 269 -149 l 2
 269 -171 322 -185 361 -196 c 1
 354 -235 l 1
 97 -235 l 1xd8
EndSplineSet
EndChar

StartChar: product.disp
Encoding: 53 -1 53
Width: 1440
Flags: HW
HStem: -449 43<98 157.586 317.051 377 1063 1122.95 1282.94 1342> 979 70<285 1155> 1006 43<92 156.75 1283.75 1348>
VStem: 190 95<-379.027 978.52> 1155 96<-379.868 978.52>
LayerCount: 2
Fore
SplineSet
98 -449 m 1xd8
 90 -406 l 1
 132 -395 190 -379 190 -356 c 2
 190 955 l 2
 190 979 134 994 92 1006 c 1
 90 1049 l 1
 1350 1049 l 1
 1348 1006 l 1xb8
 1306 994 1251 979 1251 955 c 2
 1251 -356 l 2
 1251 -379 1308 -395 1350 -406 c 1
 1342 -449 l 1
 1063 -449 l 1
 1055 -406 l 1
 1098 -395 1155 -379 1155 -356 c 2
 1155 979 l 1
 285 979 l 1
 285 -356 l 2
 285 -379 342 -395 385 -406 c 1
 377 -449 l 1
 98 -449 l 1xd8
EndSplineSet
EndChar

StartChar: product.sf
Encoding: 54 -1 54
Width: 1080
Flags: HW
HStem: 750 85<90 181 266 814 899 990>
VStem: 181 85<-235 750> 814 85<-235 750>
LayerCount: 2
Fore
SplineSet
181 -235 m 1
 181 750 l 1
 90 750 l 1
 90 835 l 1
 990 835 l 1
 990 750 l 1
 899 750 l 1
 899 -235 l 1
 814 -235 l 1
 814 750 l 1
 266 750 l 1
 266 -235 l 1
 181 -235 l 1
EndSplineSet
EndChar

StartChar: product.sf.disp
Encoding: 55 -1 55
Width: 1440
Flags: HW
HStem: 956 93<90 189 282 1158 1251 1350>
VStem: 189 93<-449 956> 1158 93<-449 956>
LayerCount: 2
Fore
SplineSet
189 -449 m 1
 189 956 l 1
 90 956 l 1
 90 1049 l 1
 1350 1049 l 1
 1350 956 l 1
 1251 956 l 1
 1251 -449 l 1
 1158 -449 l 1
 1158 956 l 1
 282 956 l 1
 282 -449 l 1
 189 -449 l 1
EndSplineSet
EndChar

StartChar: uni2210
Encoding: 56 8720 56
Width: 1080
Flags: HW
HStem: -235 64<269 811> -235 40<92 153.974 926.026 988> 796 39<97 150.125 300.375 354 726 779.625 929.875 983>
VStem: 181 88<-170.586 772.187> 811 88<-170.586 772.187>
LayerCount: 2
Fore
SplineSet
97 835 m 1x78
 354 835 l 1
 361 796 l 1
 322 785 269 771 269 749 c 2
 269 -171 l 1
 811 -171 l 1xb8
 811 749 l 2
 811 771 758 785 719 796 c 1
 726 835 l 1
 983 835 l 1
 990 796 l 1
 951 785 899 771 899 749 c 2
 899 -149 l 2
 899 -171 950 -185 988 -195 c 1
 990 -235 l 1
 90 -235 l 1
 92 -195 l 1
 130 -185 181 -171 181 -149 c 2
 181 749 l 2
 181 771 129 785 90 796 c 1
 97 835 l 1x78
EndSplineSet
EndChar

StartChar: uni2210.disp
Encoding: 57 -1 57
Width: 1440
Flags: HW
HStem: -449 70<285 1155> -449 43<92 156.75 1283.75 1348> 1006 43<98 157.586 317.051 377 1063 1122.95 1282.94 1342>
VStem: 190 95<-378.52 979.027> 1155 96<-378.52 979.868>
LayerCount: 2
Fore
SplineSet
98 1049 m 1x78
 377 1049 l 1
 385 1006 l 1
 342 995 285 979 285 956 c 2
 285 -379 l 1
 1155 -379 l 1xb8
 1155 956 l 2
 1155 979 1098 995 1055 1006 c 1
 1063 1049 l 1
 1342 1049 l 1
 1350 1006 l 1
 1308 995 1251 979 1251 956 c 2
 1251 -355 l 2
 1251 -379 1306 -394 1348 -406 c 1
 1350 -449 l 1
 90 -449 l 1
 92 -406 l 1
 134 -394 190 -379 190 -355 c 2
 190 956 l 2
 190 979 132 995 90 1006 c 1
 98 1049 l 1x78
EndSplineSet
EndChar

StartChar: uni2210.sf
Encoding: 58 -1 58
Width: 1080
Flags: HW
HStem: -235 85<90 181 266 814 899 990>
VStem: 181 85<-150 835> 814 85<-150 835>
LayerCount: 2
Fore
SplineSet
181 835 m 1
 266 835 l 1
 266 -150 l 1
 814 -150 l 1
 814 835 l 1
 899 835 l 1
 899 -150 l 1
 990 -150 l 1
 990 -235 l 1
 90 -235 l 1
 90 -150 l 1
 181 -150 l 1
 181 835 l 1
EndSplineSet
EndChar

StartChar: uni2210.sf.disp
Encoding: 59 -1 59
Width: 1440
Flags: HW
HStem: -449 93<90 189 282 1158 1251 1350>
VStem: 189 93<-356 1049> 1158 93<-356 1049>
LayerCount: 2
Fore
SplineSet
189 1049 m 1
 282 1049 l 1
 282 -356 l 1
 1158 -356 l 1
 1158 1049 l 1
 1251 1049 l 1
 1251 -356 l 1
 1350 -356 l 1
 1350 -449 l 1
 90 -449 l 1
 90 -356 l 1
 189 -356 l 1
 189 1049 l 1
EndSplineSet
EndChar

StartChar: summation
Encoding: 60 8721 60
Width: 900
Flags: HW
HStem: -235 82<447.778 762.756> -235 64<185 352.222> 773 62<201 732.619>
VStem: 778 32<703 727.588>
LayerCount: 2
Fore
SplineSet
105 -235 m 1x70
 90 -171 l 1
 396 291 l 1
 90 764 l 1
 106 835 l 1
 810 835 l 1
 810 703 l 1
 778 703 l 1
 755 757 691 773 630 773 c 2
 201 776 l 1
 504 309 l 1
 185 -171 l 1x70
 615 -153 l 2xb0
 688 -150 784 -146 794 -99 c 1
 826 -107 l 1
 790 -235 l 1
 105 -235 l 1x70
EndSplineSet
EndChar

StartChar: summation.disp
Encoding: 61 -1 61
Width: 1188
Flags: HW
HStem: -449 89<594.316 1030.54> -449 70<192 426.684> 982 67<210 1006.5>
VStem: 1063 35<905 932.768>
LayerCount: 2
Fore
SplineSet
106 -449 m 1x70
 90 -379 l 1
 536 290 l 1
 90 971 l 1
 108 1049 l 1
 1098 1049 l 1
 1098 905 l 1
 1063 905 l 1
 1031 981 933 981 846 982 c 2
 210 985 l 1
 652 310 l 1
 192 -379 l 1x70
 829 -360 l 2xb0
 931 -357 1069 -352 1081 -301 c 1
 1115 -309 l 1
 1076 -449 l 1
 106 -449 l 1x70
EndSplineSet
EndChar

StartChar: summation.sf
Encoding: 62 -1 62
Width: 900
Flags: HW
HStem: -235 88<199 810> 747 88<199 810>
LayerCount: 2
Fore
SplineSet
90 -235 m 1
 90 -147 l 1
 395 300 l 1
 90 747 l 1
 90 835 l 1
 810 835 l 1
 810 747 l 1
 199 747 l 1
 505 300 l 1
 199 -147 l 1
 810 -147 l 1
 810 -235 l 1
 90 -235 l 1
EndSplineSet
EndChar

StartChar: summation.sf.disp
Encoding: 63 -1 63
Width: 1188
Flags: HW
HStem: -449 96<208 1098> 953 96<208 1098>
LayerCount: 2
Fore
SplineSet
90 -449 m 1
 90 -353 l 1
 535 300 l 1
 90 953 l 1
 90 1049 l 1
 1098 1049 l 1
 1098 953 l 1
 208 953 l 1
 653 300 l 1
 208 -353 l 1
 1098 -353 l 1
 1098 -449 l 1
 90 -449 l 1
EndSplineSet
EndChar

StartChar: uni2A0A
Encoding: 64 10762 64
Width: 900
Flags: HW
HStem: -235 82<447.778 762.756> -235 64<185 352.222> 88 64<404.546 527.28> 448 64<416.486 527.28> 773 62<201 732.619>
VStem: 238 64<222.963 376.66> 598 64<222.72 377.28> 778 32<703 727.588>
LayerCount: 2
Fore
SplineSet
332 390 m 1x3f
 313 364 302 332 302 300 c 0
 302 265 315 230 338 203 c 1
 396 291 l 1
 332 390 l 1x3f
450 512 m 0
 567 512 662 417 662 300 c 0
 662 183 567 88 450 88 c 0
 422 88 394 93 368 104 c 1
 185 -171 l 1x7f
 615 -153 l 2xbf
 688 -150 784 -146 794 -99 c 1
 826 -107 l 1
 790 -235 l 1
 105 -235 l 1
 90 -171 l 1x7f
 302 148 l 1
 280 169 238 221 238 300 c 0
 238 354 259 406 296 446 c 1
 90 764 l 1
 106 835 l 1
 810 835 l 1
 810 703 l 1
 778 703 l 1
 755 757 691 773 630 773 c 2
 201 776 l 1
 380 500 l 1
 402 508 426 512 450 512 c 0
450 152 m 0
 532 152 598 218 598 300 c 0
 598 382 532 448 450 448 c 0
 439 448 427 447 416 444 c 1
 504 309 l 1
 404 159 l 1
 419 154 434 152 450 152 c 0
EndSplineSet
EndChar

StartChar: uni2A0A.disp
Encoding: 65 -1 65
Width: 1188
Flags: HW
HStem: -449 89<594.316 1030.54> -449 70<192 426.684> -33 70<488.085 694.687> 563 70<499.432 694.687> 982 67<210 1006.5>
VStem: 261 70<196.026 404.081> 857 70<199.313 400.687> 1063 35<905 932.768>
LayerCount: 2
Fore
SplineSet
408 486 m 1x3f
 358 437 331 370 331 300 c 0
 331 246 346 173 414 108 c 1
 536 290 l 1
 408 486 l 1x3f
594 633 m 0
 777 633 927 483 927 300 c 0
 927 117 777 -33 594 -33 c 0
 542 -33 492 -21 446 2 c 1
 192 -379 l 1x7f
 829 -360 l 2xbf
 931 -357 1069 -352 1081 -301 c 1
 1115 -309 l 1
 1076 -449 l 1
 106 -449 l 1
 90 -379 l 1x7f
 376 49 l 1
 334 86 261 170 261 300 c 0
 261 359 277 459 369 545 c 1
 90 971 l 1
 108 1049 l 1
 1098 1049 l 1
 1098 905 l 1
 1063 905 l 1
 1031 981 933 981 846 982 c 2
 210 985 l 1
 459 604 l 1
 501 623 547 633 594 633 c 0
594 37 m 0
 740 37 857 154 857 300 c 0
 857 446 740 563 594 563 c 0
 561 563 528 557 498 545 c 1
 652 310 l 1
 485 60 l 1
 519 45 556 37 594 37 c 0
EndSplineSet
EndChar

StartChar: uni2A0A.sf
Encoding: 66 -1 66
Width: 900
Flags: HW
HStem: -235 88<199 810> 88 64<408.953 527.28> 448 64<408.953 527.28> 747 88<199 810>
VStem: 238 64<223.494 376.506> 598 64<222.72 377.28>
LayerCount: 2
Fore
SplineSet
333 391 m 1
 313 365 302 333 302 300 c 0
 302 267 313 235 333 209 c 1
 395 300 l 1
 333 391 l 1
450 512 m 0
 567 512 662 417 662 300 c 0
 662 183 567 88 450 88 c 0
 423 88 395 93 370 103 c 1
 199 -147 l 1
 810 -147 l 1
 810 -235 l 1
 90 -235 l 1
 90 -147 l 1
 296 154 l 1
 259 194 238 246 238 300 c 0
 238 354 259 406 296 446 c 1
 90 747 l 1
 90 835 l 1
 810 835 l 1
 810 747 l 1
 199 747 l 1
 370 497 l 1
 395 507 423 512 450 512 c 0
450 152 m 0
 532 152 598 218 598 300 c 0
 598 382 532 448 450 448 c 0
 436 448 422 446 408 442 c 1
 505 300 l 1
 408 158 l 1
 422 154 436 152 450 152 c 0
EndSplineSet
EndChar

StartChar: uni2A0A.sf.disp
Encoding: 67 -1 67
Width: 1188
Flags: HW
HStem: -449 96<208 1098> -33 70<490.316 694.687> 563 70<490.316 694.687> 953 96<208 1098>
VStem: 261 70<197.131 404.814> 857 70<199.313 400.687>
LayerCount: 2
Fore
SplineSet
408 486 m 1
 363 440 331 380 331 300 c 0
 331 238 351 172 408 114 c 1
 535 300 l 1
 408 486 l 1
594 633 m 0
 777 633 927 483 927 300 c 0
 927 117 777 -33 594 -33 c 0
 543 -33 494 -22 449 0 c 1
 208 -353 l 1
 1098 -353 l 1
 1098 -449 l 1
 90 -449 l 1
 90 -353 l 1
 369 56 l 1
 325 97 261 178 261 300 c 0
 261 359 278 458 369 544 c 1
 90 953 l 1
 90 1049 l 1
 1098 1049 l 1
 1098 953 l 1
 208 953 l 1
 449 600 l 1
 494 622 543 633 594 633 c 0
594 37 m 0
 740 37 857 154 857 300 c 0
 857 446 740 563 594 563 c 0
 557 563 522 555 489 541 c 1
 653 300 l 1
 489 59 l 1
 522 45 557 37 594 37 c 0
EndSplineSet
EndChar

StartChar: integral
Encoding: 68 8747 68
Width: 468
Flags: HW
HStem: -303 71<110 203.781> 834 69<390.743 490.281>
VStem: 257 86<-168.864 777.102>
LayerCount: 2
Fore
SplineSet
257 680 m 2
 257 796 342 903 469 903 c 0
 482 903 496 901 508 898 c 1
 490 828 l 1
 474 832 458 834 442 834 c 0
 375 834 343 756 343 680 c 2
 343 -75 l 2
 343 -201 241 -303 115 -303 c 0
 113 -303 112 -303 110 -303 c 1
 100 -232 l 1
 148 -232 l 2
 219 -232 257 -154 257 -75 c 2
 257 680 l 2
EndSplineSet
EndChar

StartChar: integral.disp
Encoding: 69 -1 69
Width: 676
Flags: HW
HStem: -786 83<119 249.641> 1305 81<663.796 817.293>
VStem: 419 98<-519.028 1125.81>
LayerCount: 2
Fore
SplineSet
419 998 m 2
 419 1221 590 1386 772 1386 c 1
 839 1380 l 1
 817 1299 l 1
 791 1303 764 1305 737 1305 c 0
 596 1305 517 1154 517 998 c 2
 517 -393 l 2
 517 -610 340 -786 124 -786 c 0
 122 -786 121 -786 119 -786 c 1
 107 -703 l 1
 189 -703 l 2
 333 -703 419 -551 419 -393 c 2
 419 998 l 2
EndSplineSet
EndChar

StartChar: uni222C
Encoding: 70 8748 70
Width: 768
Flags: HW
HStem: -303 71<110 203.781 410 503.781> 834 69<390.743 490.281 690.743 790.281>
VStem: 257 86<-168.864 777.102> 557 86<-168.864 777.102>
LayerCount: 2
Fore
SplineSet
257 680 m 2
 257 796 342 903 469 903 c 0
 482 903 496 901 508 898 c 1
 490 828 l 1
 474 832 458 834 442 834 c 0
 375 834 343 756 343 680 c 2
 343 -75 l 2
 343 -201 241 -303 115 -303 c 0
 113 -303 112 -303 110 -303 c 1
 100 -232 l 1
 148 -232 l 2
 219 -232 257 -154 257 -75 c 2
 257 680 l 2
557 680 m 2
 557 796 642 903 769 903 c 0
 782 903 796 901 808 898 c 1
 790 828 l 1
 774 832 758 834 742 834 c 0
 675 834 643 756 643 680 c 2
 643 -75 l 2
 643 -201 541 -303 415 -303 c 0
 413 -303 412 -303 410 -303 c 1
 400 -232 l 1
 448 -232 l 2
 519 -232 557 -154 557 -75 c 2
 557 680 l 2
EndSplineSet
EndChar

StartChar: uni222C.disp
Encoding: 71 -1 71
Width: 1216
Flags: HW
HStem: -786 83<119 249.641 659 789.641> 1305 81<663.796 817.293 1203.8 1357.29>
VStem: 419 98<-519.028 1125.81> 959 98<-519.028 1125.81>
LayerCount: 2
Fore
SplineSet
419 998 m 2
 419 1221 590 1386 772 1386 c 1
 839 1380 l 1
 817 1299 l 1
 791 1303 764 1305 737 1305 c 0
 596 1305 517 1154 517 998 c 2
 517 -393 l 2
 517 -610 340 -786 124 -786 c 0
 122 -786 121 -786 119 -786 c 1
 107 -703 l 1
 189 -703 l 2
 333 -703 419 -551 419 -393 c 2
 419 998 l 2
959 998 m 2
 959 1221 1130 1386 1312 1386 c 1
 1379 1380 l 1
 1357 1299 l 1
 1331 1303 1304 1305 1277 1305 c 0
 1136 1305 1057 1154 1057 998 c 2
 1057 -393 l 2
 1057 -610 880 -786 664 -786 c 0
 662 -786 661 -786 659 -786 c 1
 647 -703 l 1
 729 -703 l 2
 873 -703 959 -551 959 -393 c 2
 959 998 l 2
EndSplineSet
EndChar

StartChar: uni222D
Encoding: 72 8749 72
Width: 1068
Flags: HW
HStem: -303 71<110 203.781 410 503.781 710 803.781> 834 69<390.743 490.281 690.743 790.281 990.743 1090.28>
VStem: 257 86<-168.864 777.102> 557 86<-168.864 777.102> 857 86<-168.864 777.102>
CounterMasks: 1 38
LayerCount: 2
Fore
SplineSet
257 680 m 2
 257 796 342 903 469 903 c 0
 482 903 496 901 508 898 c 1
 490 828 l 1
 474 832 458 834 442 834 c 0
 375 834 343 756 343 680 c 2
 343 -75 l 2
 343 -201 241 -303 115 -303 c 0
 113 -303 112 -303 110 -303 c 1
 100 -232 l 1
 148 -232 l 2
 219 -232 257 -154 257 -75 c 2
 257 680 l 2
557 680 m 2
 557 796 642 903 769 903 c 0
 782 903 796 901 808 898 c 1
 790 828 l 1
 774 832 758 834 742 834 c 0
 675 834 643 756 643 680 c 2
 643 -75 l 2
 643 -201 541 -303 415 -303 c 0
 413 -303 412 -303 410 -303 c 1
 400 -232 l 1
 448 -232 l 2
 519 -232 557 -154 557 -75 c 2
 557 680 l 2
857 680 m 2
 857 796 942 903 1069 903 c 0
 1082 903 1096 901 1108 898 c 1
 1090 828 l 1
 1074 832 1058 834 1042 834 c 0
 975 834 943 756 943 680 c 2
 943 -75 l 2
 943 -201 841 -303 715 -303 c 0
 713 -303 712 -303 710 -303 c 1
 700 -232 l 1
 748 -232 l 2
 819 -232 857 -154 857 -75 c 2
 857 680 l 2
EndSplineSet
EndChar

StartChar: uni222D.disp
Encoding: 73 -1 73
Width: 1756
Flags: HW
HStem: -786 83<119 249.641 659 789.641 1199 1329.64> 1305 81<663.796 817.293 1203.8 1357.29 1743.8 1897.29>
VStem: 419 98<-519.028 1125.81> 959 98<-519.028 1125.81> 1499 98<-519.028 1125.81>
CounterMasks: 1 38
LayerCount: 2
Fore
SplineSet
419 998 m 2
 419 1221 590 1386 772 1386 c 1
 839 1380 l 1
 817 1299 l 1
 791 1303 764 1305 737 1305 c 0
 596 1305 517 1154 517 998 c 2
 517 -393 l 2
 517 -610 340 -786 124 -786 c 0
 122 -786 121 -786 119 -786 c 1
 107 -703 l 1
 189 -703 l 2
 333 -703 419 -551 419 -393 c 2
 419 998 l 2
959 998 m 2
 959 1221 1130 1386 1312 1386 c 1
 1379 1380 l 1
 1357 1299 l 1
 1331 1303 1304 1305 1277 1305 c 0
 1136 1305 1057 1154 1057 998 c 2
 1057 -393 l 2
 1057 -610 880 -786 664 -786 c 0
 662 -786 661 -786 659 -786 c 1
 647 -703 l 1
 729 -703 l 2
 873 -703 959 -551 959 -393 c 2
 959 998 l 2
1499 998 m 2
 1499 1221 1670 1386 1852 1386 c 1
 1919 1380 l 1
 1897 1299 l 1
 1871 1303 1844 1305 1817 1305 c 0
 1676 1305 1597 1154 1597 998 c 2
 1597 -393 l 2
 1597 -610 1420 -786 1204 -786 c 0
 1202 -786 1201 -786 1199 -786 c 1
 1187 -703 l 1
 1269 -703 l 2
 1413 -703 1499 -551 1499 -393 c 2
 1499 998 l 2
EndSplineSet
EndChar

StartChar: uni2A0C
Encoding: 74 10764 74
Width: 1368
Flags: HW
HStem: -303 71<110 203.781 410 503.781 710 803.781 1010 1103.78> 834 69<390.743 490.281 690.743 790.281 990.743 1090.28 1290.74 1390.28>
VStem: 257 86<-168.864 777.102> 557 86<-168.864 777.102> 857 86<-168.864 777.102> 1157 86<-168.864 777.102>
LayerCount: 2
Fore
SplineSet
257 680 m 2
 257 796 342 903 469 903 c 0
 482 903 496 901 508 898 c 1
 490 828 l 1
 474 832 458 834 442 834 c 0
 375 834 343 756 343 680 c 2
 343 -75 l 2
 343 -201 241 -303 115 -303 c 0
 113 -303 112 -303 110 -303 c 1
 100 -232 l 1
 148 -232 l 2
 219 -232 257 -154 257 -75 c 2
 257 680 l 2
557 680 m 2
 557 796 642 903 769 903 c 0
 782 903 796 901 808 898 c 1
 790 828 l 1
 774 832 758 834 742 834 c 0
 675 834 643 756 643 680 c 2
 643 -75 l 2
 643 -201 541 -303 415 -303 c 0
 413 -303 412 -303 410 -303 c 1
 400 -232 l 1
 448 -232 l 2
 519 -232 557 -154 557 -75 c 2
 557 680 l 2
857 680 m 2
 857 796 942 903 1069 903 c 0
 1082 903 1096 901 1108 898 c 1
 1090 828 l 1
 1074 832 1058 834 1042 834 c 0
 975 834 943 756 943 680 c 2
 943 -75 l 2
 943 -201 841 -303 715 -303 c 0
 713 -303 712 -303 710 -303 c 1
 700 -232 l 1
 748 -232 l 2
 819 -232 857 -154 857 -75 c 2
 857 680 l 2
1157 680 m 2
 1157 796 1242 903 1369 903 c 0
 1382 903 1396 901 1408 898 c 1
 1390 828 l 1
 1374 832 1358 834 1342 834 c 0
 1275 834 1243 756 1243 680 c 2
 1243 -75 l 2
 1243 -201 1141 -303 1015 -303 c 0
 1013 -303 1012 -303 1010 -303 c 1
 1000 -232 l 1
 1048 -232 l 2
 1119 -232 1157 -154 1157 -75 c 2
 1157 680 l 2
EndSplineSet
EndChar

StartChar: uni2A0C.disp
Encoding: 75 -1 75
Width: 2296
Flags: HW
HStem: -786 83<119 249.641 659 789.641 1199 1329.64 1739 1869.64> 1305 81<663.796 817.293 1203.8 1357.29 1743.8 1897.29 2283.8 2437.29>
VStem: 419 98<-519.028 1125.81> 959 98<-519.028 1125.81> 1499 98<-519.028 1125.81> 2039 98<-519.028 1125.81>
LayerCount: 2
Fore
SplineSet
419 998 m 2
 419 1221 590 1386 772 1386 c 1
 839 1380 l 1
 817 1299 l 1
 791 1303 764 1305 737 1305 c 0
 596 1305 517 1154 517 998 c 2
 517 -393 l 2
 517 -610 340 -786 124 -786 c 0
 122 -786 121 -786 119 -786 c 1
 107 -703 l 1
 189 -703 l 2
 333 -703 419 -551 419 -393 c 2
 419 998 l 2
959 998 m 2
 959 1221 1130 1386 1312 1386 c 1
 1379 1380 l 1
 1357 1299 l 1
 1331 1303 1304 1305 1277 1305 c 0
 1136 1305 1057 1154 1057 998 c 2
 1057 -393 l 2
 1057 -610 880 -786 664 -786 c 0
 662 -786 661 -786 659 -786 c 1
 647 -703 l 1
 729 -703 l 2
 873 -703 959 -551 959 -393 c 2
 959 998 l 2
1499 998 m 2
 1499 1221 1670 1386 1852 1386 c 1
 1919 1380 l 1
 1897 1299 l 1
 1871 1303 1844 1305 1817 1305 c 0
 1676 1305 1597 1154 1597 998 c 2
 1597 -393 l 2
 1597 -610 1420 -786 1204 -786 c 0
 1202 -786 1201 -786 1199 -786 c 1
 1187 -703 l 1
 1269 -703 l 2
 1413 -703 1499 -551 1499 -393 c 2
 1499 998 l 2
2039 998 m 2
 2039 1221 2210 1386 2392 1386 c 1
 2459 1380 l 1
 2437 1299 l 1
 2411 1303 2384 1305 2357 1305 c 0
 2216 1305 2137 1154 2137 998 c 2
 2137 -393 l 2
 2137 -610 1960 -786 1744 -786 c 0
 1742 -786 1741 -786 1739 -786 c 1
 1727 -703 l 1
 1809 -703 l 2
 1953 -703 2039 -551 2039 -393 c 2
 2039 998 l 2
EndSplineSet
EndChar

StartChar: uni222B22EF222B
Encoding: 76 -1 76
Width: 1788
Flags: HW
HStem: -303 71<110 203.781 1280 1373.78> 227 150<556.367 629.1 848.471 921.529 1141.37 1214.1> 834 69<390.743 490.281 1560.74 1660.28>
VStem: 257 86<-168.864 777.102> 518 150<265.9 338.633> 810 150<264.757 338.633> 1103 150<265.9 338.633> 1427 86<-168.864 777.102>
LayerCount: 2
Fore
SplineSet
257 680 m 2
 257 796 342 903 469 903 c 0
 482 903 496 901 508 898 c 1
 490 828 l 1
 474 832 458 834 442 834 c 0
 375 834 343 756 343 680 c 2
 343 -75 l 2
 343 -201 241 -303 115 -303 c 0
 113 -303 112 -303 110 -303 c 1
 100 -232 l 1
 148 -232 l 2
 219 -232 257 -154 257 -75 c 2
 257 680 l 2
1427 680 m 2
 1427 796 1512 903 1639 903 c 0
 1652 903 1666 901 1678 898 c 1
 1660 828 l 1
 1644 832 1628 834 1612 834 c 0
 1545 834 1513 756 1513 680 c 2
 1513 -75 l 2
 1513 -201 1411 -303 1285 -303 c 0
 1283 -303 1282 -303 1280 -303 c 1
 1270 -232 l 1
 1318 -232 l 2
 1389 -232 1427 -154 1427 -75 c 2
 1427 680 l 2
668 302 m 0
 668 281 614 227 593 227 c 0
 578 227 561 244 548 257 c 0
 534 271 518 287 518 302 c 0
 518 317 534 334 548 347 c 0
 561 361 578 377 593 377 c 0
 608 377 624 361 638 347 c 0
 651 334 668 317 668 302 c 0
885 227 m 0
 863 227 810 282 810 302 c 0
 810 317 827 334 840 347 c 0
 853 361 870 377 885 377 c 0
 900 377 917 361 930 347 c 0
 943 334 960 317 960 302 c 0
 960 282 907 227 885 227 c 0
1253 302 m 0
 1253 281 1199 227 1178 227 c 0
 1163 227 1146 244 1133 257 c 0
 1119 271 1103 287 1103 302 c 0
 1103 317 1119 334 1133 347 c 0
 1146 361 1163 377 1178 377 c 0
 1193 377 1209 361 1223 347 c 0
 1236 334 1253 317 1253 302 c 0
EndSplineSet
EndChar

StartChar: uni222B22EF222B.disp
Encoding: 77 -1 77
Width: 2236
Flags: HW
HStem: -786 83<119 249.641 1409 1539.64> 228 150<754.367 827.1 1076.47 1149.53 1399.37 1472.1> 1305 81<663.796 817.293 1953.8 2107.29>
VStem: 419 98<-519.028 1125.81> 716 150<266.367 339.1> 1038 150<266.367 340.243> 1361 150<266.367 339.1> 1709 98<-519.028 1125.81>
LayerCount: 2
Fore
SplineSet
419 998 m 2
 419 1221 590 1386 772 1386 c 1
 839 1380 l 1
 817 1299 l 1
 791 1303 764 1305 737 1305 c 0
 596 1305 517 1154 517 998 c 2
 517 -393 l 2
 517 -610 340 -786 124 -786 c 0
 122 -786 121 -786 119 -786 c 1
 107 -703 l 1
 189 -703 l 2
 333 -703 419 -551 419 -393 c 2
 419 998 l 2
1709 998 m 2
 1709 1221 1880 1386 2062 1386 c 1
 2129 1380 l 1
 2107 1299 l 1
 2081 1303 2054 1305 2027 1305 c 0
 1886 1305 1807 1154 1807 998 c 2
 1807 -393 l 2
 1807 -610 1630 -786 1414 -786 c 0
 1412 -786 1411 -786 1409 -786 c 1
 1397 -703 l 1
 1479 -703 l 2
 1623 -703 1709 -551 1709 -393 c 2
 1709 998 l 2
791 378 m 0
 812 378 866 324 866 303 c 0
 866 288 849 271 836 258 c 0
 822 244 806 228 791 228 c 0
 776 228 759 244 746 258 c 0
 732 271 716 288 716 303 c 0
 716 318 732 334 746 348 c 0
 759 361 776 378 791 378 c 0
1113 378 m 0
 1135 378 1188 323 1188 303 c 0
 1188 288 1171 271 1158 258 c 0
 1145 244 1128 228 1113 228 c 0
 1098 228 1081 244 1068 258 c 0
 1055 271 1038 288 1038 303 c 0
 1038 323 1091 378 1113 378 c 0
1436 378 m 0
 1457 378 1511 324 1511 303 c 0
 1511 288 1494 271 1481 258 c 0
 1467 244 1451 228 1436 228 c 0
 1421 228 1404 244 1391 258 c 0
 1377 271 1361 288 1361 303 c 0
 1361 318 1377 334 1391 348 c 0
 1404 361 1421 378 1436 378 c 0
EndSplineSet
EndChar

StartChar: uni2231
Encoding: 78 8753 78
Width: 720
Flags: HW
HStem: -303 71<170 263.781> 204 53<466.34 529> 326 65<255.906 317 403 465.051> 834 69<450.743 550.281>
VStem: 317 86<-168.864 326 387.27 777.102> 562 53<315 375.66>
LayerCount: 2
Fore
SplineSet
317 680 m 2
 317 796 402 903 529 903 c 0
 542 903 556 901 568 898 c 1
 550 828 l 1
 534 832 518 834 502 834 c 0
 435 834 403 756 403 680 c 2
 403 391 l 1
 463 381 518 353 567 315 c 1
 562 375 l 1
 615 380 l 1
 629 218 l 1
 467 204 l 1
 462 257 l 1
 529 263 l 1
 491 293 449 317 403 326 c 1
 403 -75 l 2
 403 -201 301 -303 175 -303 c 0
 173 -303 172 -303 170 -303 c 1
 160 -232 l 1
 208 -232 l 2
 279 -232 317 -154 317 -75 c 2
 317 326 l 1
 250 313 193 270 143 220 c 1
 97 265 l 1
 159 327 233 378 317 391 c 1
 317 680 l 2
EndSplineSet
EndChar

StartChar: uni2231.disp
Encoding: 79 -1 79
Width: 892
Flags: HW
HStem: -786 83<227 357.641> 371 74<440.639 527 625 712.662> 1305 81<771.796 925.293>
VStem: 527 98<-519.028 371 442.698 1125.81>
LayerCount: 2
Fore
SplineSet
527 998 m 2
 527 1221 698 1386 880 1386 c 1
 947 1380 l 1
 925 1299 l 1
 899 1303 872 1305 845 1305 c 0
 704 1305 625 1154 625 998 c 2
 625 445 l 1
 753 431 870 366 970 280 c 1
 956 435 l 1
 1017 441 l 1
 1041 167 l 1
 767 143 l 1
 762 204 l 1
 928 219 l 1
 840 296 738 357 625 371 c 1
 625 -393 l 2
 625 -610 448 -786 232 -786 c 0
 230 -786 229 -786 227 -786 c 1
 215 -703 l 1
 297 -703 l 2
 441 -703 527 -551 527 -393 c 2
 527 371 l 1
 390 354 270 268 170 168 c 1
 118 221 l 1
 231 334 370 428 527 445 c 1
 527 998 l 2
EndSplineSet
EndChar

StartChar: uni2A11
Encoding: 80 10769 80
Width: 720
Flags: HW
HStem: -303 71<170 263.781> 213 65<257.026 317 403 463.062> 348 53<466.34 529> 834 69<450.743 550.281>
VStem: 317 86<-168.864 216.946 278 777.102> 562 53<228.472 290>
LayerCount: 2
Fore
SplineSet
317 680 m 2
 317 796 402 903 529 903 c 0
 542 903 556 901 568 898 c 1
 550 828 l 1
 534 832 518 834 502 834 c 0
 435 834 403 756 403 680 c 2
 403 278 l 1
 449 287 491 312 529 342 c 1
 462 348 l 1
 467 401 l 1
 629 387 l 1
 615 225 l 1
 562 229 l 1
 567 290 l 1
 518 252 463 223 403 213 c 1
 403 -75 l 2
 403 -201 301 -303 175 -303 c 0
 173 -303 172 -303 170 -303 c 1
 160 -232 l 1
 208 -232 l 2
 279 -232 317 -154 317 -75 c 2
 317 213 l 1
 233 227 159 278 97 340 c 1
 143 385 l 1
 193 335 250 292 317 278 c 1
 317 680 l 2
EndSplineSet
EndChar

StartChar: uni2A11.disp
Encoding: 81 -1 81
Width: 892
Flags: HW
HStem: -786 83<227 357.641> 161 74<440.639 527 625 713.11> 1305 81<771.796 925.293>
VStem: 527 98<-519.028 163.174 235 1125.81>
LayerCount: 2
Fore
SplineSet
527 998 m 2
 527 1221 698 1386 880 1386 c 1
 947 1380 l 1
 925 1299 l 1
 899 1303 872 1305 845 1305 c 0
 704 1305 625 1154 625 998 c 2
 625 235 l 1
 739 249 841 310 929 387 c 1
 762 401 l 1
 767 463 l 1
 1041 439 l 1
 1017 164 l 1
 956 170 l 1
 970 325 l 1
 870 240 753 174 625 161 c 1
 625 -393 l 2
 625 -610 448 -786 232 -786 c 0
 230 -786 229 -786 227 -786 c 1
 215 -703 l 1
 297 -703 l 2
 441 -703 527 -551 527 -393 c 2
 527 161 l 1
 370 177 231 271 118 384 c 1
 170 437 l 1
 270 337 390 252 527 235 c 1
 527 998 l 2
EndSplineSet
EndChar

StartChar: uni2A0D
Encoding: 82 10765 82
Width: 600
Flags: HW
HStem: -303 71<110 203.781> 270 64<118 257 343 482> 834 69<390.743 490.281>
VStem: 257 86<-168.864 270 334 777.102>
LayerCount: 2
Fore
SplineSet
257 680 m 2
 257 796 342 903 469 903 c 0
 482 903 496 901 508 898 c 1
 490 828 l 1
 474 832 458 834 442 834 c 0
 375 834 343 756 343 680 c 2
 343 334 l 1
 482 334 l 1
 482 270 l 1
 343 270 l 1
 343 -75 l 2
 343 -201 241 -303 115 -303 c 0
 113 -303 112 -303 110 -303 c 1
 100 -232 l 1
 148 -232 l 2
 219 -232 257 -154 257 -75 c 2
 257 270 l 1
 118 270 l 1
 118 334 l 1
 257 334 l 1
 257 680 l 2
EndSplineSet
EndChar

StartChar: uni2A0D.disp
Encoding: 83 -1 83
Width: 676
Flags: HW
HStem: -786 83<119 249.641> 266 74<161 419 517 775> 1305 81<663.796 817.293>
VStem: 419 98<-519.028 266 340 1125.81>
LayerCount: 2
Fore
SplineSet
419 998 m 2
 419 1221 590 1386 772 1386 c 1
 839 1380 l 1
 817 1299 l 1
 791 1303 764 1305 737 1305 c 0
 596 1305 517 1154 517 998 c 2
 517 340 l 1
 775 340 l 1
 775 266 l 1
 517 266 l 1
 517 -393 l 2
 517 -610 340 -786 124 -786 c 0
 122 -786 121 -786 119 -786 c 1
 107 -703 l 1
 189 -703 l 2
 333 -703 419 -551 419 -393 c 2
 419 266 l 1
 161 266 l 1
 161 340 l 1
 419 340 l 1
 419 998 l 2
EndSplineSet
EndChar

StartChar: uni2A0E
Encoding: 84 10766 84
Width: 600
Flags: HW
HStem: -303 71<110 203.781> 180 64<118 257 343 482> 360 64<118 257 343 482> 834 69<390.743 490.281>
VStem: 257 86<-168.864 180 244 360 424 777.102>
LayerCount: 2
Fore
SplineSet
257 680 m 2
 257 796 342 903 469 903 c 0
 482 903 496 901 508 898 c 1
 490 828 l 1
 474 832 458 834 442 834 c 0
 375 834 343 756 343 680 c 2
 343 424 l 1
 482 424 l 1
 482 360 l 1
 343 360 l 1
 343 244 l 1
 482 244 l 1
 482 180 l 1
 343 180 l 1
 343 -75 l 2
 343 -201 241 -303 115 -303 c 0
 113 -303 112 -303 110 -303 c 1
 100 -232 l 1
 148 -232 l 2
 219 -232 257 -154 257 -75 c 2
 257 180 l 1
 118 180 l 1
 118 244 l 1
 257 244 l 1
 257 360 l 1
 118 360 l 1
 118 424 l 1
 257 424 l 1
 257 680 l 2
EndSplineSet
EndChar

StartChar: uni2A0E.disp
Encoding: 85 -1 85
Width: 676
Flags: HW
HStem: -786 83<119 249.641> 176 74<161 419 517 775> 356 74<161 419 517 775> 1305 81<663.796 817.293>
VStem: 419 98<-519.028 176 250 356 430 1125.81>
LayerCount: 2
Fore
SplineSet
419 998 m 2
 419 1221 590 1386 772 1386 c 1
 839 1380 l 1
 817 1299 l 1
 791 1303 764 1305 737 1305 c 0
 596 1305 517 1154 517 998 c 2
 517 430 l 1
 775 430 l 1
 775 356 l 1
 517 356 l 1
 517 250 l 1
 775 250 l 1
 775 176 l 1
 517 176 l 1
 517 -393 l 2
 517 -610 340 -786 124 -786 c 0
 122 -786 121 -786 119 -786 c 1
 107 -703 l 1
 189 -703 l 2
 333 -703 419 -551 419 -393 c 2
 419 176 l 1
 161 176 l 1
 161 250 l 1
 419 250 l 1
 419 356 l 1
 161 356 l 1
 161 430 l 1
 419 430 l 1
 419 998 l 2
EndSplineSet
EndChar

StartChar: uni2A0F
Encoding: 86 10767 86
Width: 468
Flags: HW
HStem: -303 71<110 203.781> 834 69<390.743 490.281>
VStem: 257 86<-168.864 233 371 777.102>
LayerCount: 2
Fore
SplineSet
257 680 m 2
 257 796 342 903 469 903 c 0
 482 903 496 901 508 898 c 1
 490 828 l 1
 474 832 458 834 442 834 c 0
 375 834 343 756 343 680 c 2
 343 371 l 1
 480 467 l 1
 517 415 l 1
 343 293 l 1
 343 -75 l 2
 343 -201 241 -303 115 -303 c 0
 113 -303 112 -303 110 -303 c 1
 100 -232 l 1
 148 -232 l 2
 219 -232 257 -154 257 -75 c 2
 257 233 l 1
 120 137 l 1
 83 190 l 1
 257 311 l 1
 257 680 l 2
EndSplineSet
EndChar

StartChar: uni2A0F.disp
Encoding: 87 -1 87
Width: 676
Flags: HW
HStem: -786 83<119 249.641> 1305 81<663.796 817.293>
VStem: 419 98<-519.028 223 382 1125.81>
LayerCount: 2
Fore
SplineSet
419 998 m 2
 419 1221 590 1386 772 1386 c 1
 839 1380 l 1
 817 1299 l 1
 791 1303 764 1305 737 1305 c 0
 596 1305 517 1154 517 998 c 2
 517 382 l 1
 787 571 l 1
 829 510 l 1
 517 292 l 1
 517 -393 l 2
 517 -610 340 -786 124 -786 c 0
 122 -786 121 -786 119 -786 c 1
 107 -703 l 1
 189 -703 l 2
 333 -703 419 -551 419 -393 c 2
 419 223 l 1
 149 34 l 1
 107 95 l 1
 419 313 l 1
 419 998 l 2
EndSplineSet
EndChar

StartChar: uni222E
Encoding: 88 8750 88
Width: 660
Flags: HW
HStem: -303 71<140 233.781> 64 65<240.89 287 373 419.11> 471 65<240.89 287 373 419.11> 834 69<420.743 520.281>
VStem: 90 64<217.316 382.684> 287 86<-168.864 68.6609 129 471 531.339 777.102> 506 64<217.316 382.684>
CounterMasks: 1 0e
LayerCount: 2
Fore
SplineSet
287 471 m 1
 212 452 154 382 154 300 c 0
 154 218 212 148 287 129 c 1
 287 471 l 1
373 129 m 1
 448 148 506 218 506 300 c 0
 506 382 448 452 373 471 c 1
 373 129 l 1
287 680 m 2
 287 796 372 903 499 903 c 0
 512 903 526 901 538 898 c 1
 520 828 l 1
 504 832 488 834 472 834 c 0
 405 834 373 756 373 680 c 2
 373 536 l 1
 487 516 570 417 570 300 c 0
 570 183 487 84 373 64 c 1
 373 -75 l 2
 373 -201 271 -303 145 -303 c 0
 143 -303 142 -303 140 -303 c 1
 130 -232 l 1
 178 -232 l 2
 249 -232 287 -154 287 -75 c 2
 287 64 l 1
 173 84 90 183 90 300 c 0
 90 417 173 516 287 536 c 1
 287 680 l 2
EndSplineSet
EndChar

StartChar: uni222E.disp
Encoding: 89 -1 89
Width: 784
Flags: HW
HStem: -786 83<173 303.641> -129 74<394.814 473 571 649.186> 655 74<394.814 473 571 649.186> 1305 81<717.796 871.293>
VStem: 90 74<180.643 419.357> 473 98<-519.028 -126.194 -55 655 726.194 1125.81> 880 74<180.643 419.357>
CounterMasks: 1 0e
LayerCount: 2
Fore
SplineSet
473 655 m 1
 296 630 164 478 164 300 c 0
 164 122 296 -30 473 -55 c 1
 473 655 l 1
571 -55 m 1
 748 -30 880 122 880 300 c 0
 880 478 748 630 571 655 c 1
 571 -55 l 1
473 998 m 2
 473 1221 644 1386 826 1386 c 1
 893 1380 l 1
 871 1299 l 1
 845 1303 818 1305 791 1305 c 0
 650 1305 571 1154 571 998 c 2
 571 729 l 1
 786 704 954 520 954 300 c 0
 954 80 786 -104 571 -129 c 1
 571 -393 l 2
 571 -610 394 -786 178 -786 c 0
 176 -786 175 -786 173 -786 c 1
 161 -703 l 1
 243 -703 l 2
 387 -703 473 -551 473 -393 c 2
 473 -129 l 1
 258 -104 90 80 90 300 c 0
 90 520 258 704 473 729 c 1
 473 998 l 2
EndSplineSet
EndChar

StartChar: uni222F
Encoding: 90 8751 90
Width: 960
Flags: HW
HStem: -303 71<140 233.781 440 533.781> 60 64<373 587> 454 67<673 722.333> 476 64<373 587> 834 69<420.743 520.281 720.743 820.281>
VStem: 90 64<223.536 374.808> 287 86<-168.864 64 146 454 536 777.102> 587 86<-168.864 64 146 454 536 777.102> 806 64<223.198 376.838>
LayerCount: 2
Fore
SplineSet
287 454 m 1xef80
 227 434 154 391 154 300 c 0
 154 250 177 182 287 146 c 1
 287 454 l 1xef80
587 129 m 1
 587 471 l 1
 552 475 516 476 480 476 c 0xdf80
 444 476 408 475 373 471 c 1
 373 129 l 1
 408 125 444 124 480 124 c 0
 516 124 552 125 587 129 c 1
673 146 m 1
 734 165 806 208 806 300 c 0
 806 351 783 419 673 454 c 1xef80
 673 146 l 1
587 680 m 2
 587 796 672 903 799 903 c 0
 812 903 826 901 838 898 c 1
 820 828 l 1
 804 832 788 834 772 834 c 0
 705 834 673 756 673 680 c 2
 673 521 l 1
 708 512 742 499 773 480 c 0
 835 442 870 373 870 300 c 0
 870 229 840 122 673 79 c 1
 673 -75 l 2
 673 -201 571 -303 445 -303 c 0
 443 -303 442 -303 440 -303 c 1
 430 -232 l 1
 478 -232 l 2
 549 -232 587 -154 587 -75 c 2
 587 64 l 1
 552 61 516 60 480 60 c 0
 444 60 408 61 373 64 c 1
 373 -75 l 2
 373 -201 271 -303 145 -303 c 0
 143 -303 142 -303 140 -303 c 1
 130 -232 l 1
 178 -232 l 2
 249 -232 287 -154 287 -75 c 2
 287 79 l 1
 252 88 219 101 188 120 c 0
 126 158 90 227 90 300 c 0
 90 364 116 477 287 521 c 1xef80
 287 680 l 2
 287 796 372 903 499 903 c 0
 512 903 526 901 538 898 c 1
 520 828 l 1
 504 832 488 834 472 834 c 0
 405 834 373 756 373 680 c 2
 373 536 l 1
 408 539 444 540 480 540 c 0xdf80
 516 540 552 539 587 536 c 1
 587 680 l 2
EndSplineSet
EndChar

StartChar: uni222F.disp
Encoding: 91 -1 91
Width: 1324
Flags: HW
HStem: -786 83<173 303.641 713 843.641> -132 74<574.423 1009.58> 658 74<574.423 1009.58> 1305 81<717.796 871.293 1257.8 1411.29>
VStem: 90 74<188.35 411.65> 473 98<-519.028 -121 -28 628 721 1125.81> 1013 98<-519.028 -121 -28 628 721 1125.81> 1420 74<188.35 411.65>
LayerCount: 2
Fore
SplineSet
473 -28 m 1
 473 628 l 1
 420 615 369 596 321 568 c 0
 224 513 164 411 164 300 c 0
 164 189 224 87 321 32 c 0
 369 4 420 -15 473 -28 c 1
1013 -47 m 1
 1013 647 l 1
 940 657 866 658 792 658 c 0
 718 658 644 657 571 647 c 1
 571 -47 l 1
 644 -57 718 -58 792 -58 c 0
 866 -58 940 -57 1013 -47 c 1
1420 300 m 0
 1420 411 1360 513 1263 568 c 0
 1215 596 1164 615 1111 628 c 1
 1111 -28 l 1
 1164 -15 1215 4 1263 32 c 0
 1360 87 1420 189 1420 300 c 0
1013 998 m 2
 1013 1221 1184 1386 1366 1386 c 1
 1433 1380 l 1
 1411 1299 l 1
 1385 1303 1358 1305 1331 1305 c 0
 1190 1305 1111 1154 1111 998 c 2
 1111 705 l 1
 1184 689 1254 664 1319 624 c 0
 1430 555 1494 431 1494 300 c 0
 1494 169 1430 45 1319 -24 c 0
 1254 -64 1184 -89 1111 -105 c 1
 1111 -393 l 2
 1111 -610 934 -786 718 -786 c 0
 716 -786 715 -786 713 -786 c 1
 701 -703 l 1
 783 -703 l 2
 927 -703 1013 -551 1013 -393 c 2
 1013 -121 l 1
 940 -130 866 -132 792 -132 c 0
 718 -132 644 -130 571 -121 c 1
 571 -393 l 2
 571 -610 394 -786 178 -786 c 0
 176 -786 175 -786 173 -786 c 1
 161 -703 l 1
 243 -703 l 2
 387 -703 473 -551 473 -393 c 2
 473 -105 l 1
 400 -89 330 -64 266 -24 c 0
 154 45 90 169 90 300 c 0
 90 431 154 555 266 624 c 0
 330 664 400 689 473 705 c 1
 473 998 l 2
 473 1221 644 1386 826 1386 c 1
 893 1380 l 1
 871 1299 l 1
 845 1303 818 1305 791 1305 c 0
 650 1305 571 1154 571 998 c 2
 571 721 l 1
 644 730 718 732 792 732 c 0
 866 732 940 730 1013 721 c 1
 1013 998 l 2
EndSplineSet
EndChar

StartChar: uni2230
Encoding: 92 8752 92
Width: 1260
Flags: HW
HStem: -303 71<140 233.781 440 533.781 740 833.781> 76 65<373 583.625 676.375 887> 459 65<373 583.625 676.375 887> 834 69<420.743 520.281 720.743 820.281 1020.74 1120.28>
VStem: 90 64<236.047 363.599> 287 86<-168.864 76 163 437 524 777.102> 587 86<-168.864 60 124 476 540 777.102> 887 86<-168.864 76 163 437 524 777.102> 1106 64<236.401 363.953>
LayerCount: 2
Fore
SplineSet
287 437 m 1
 240 421 154 381 154 300 c 0
 154 267 170 203 287 163 c 1
 287 437 l 1
373 141 m 1
 443 128 515 125 587 124 c 1
 587 476 l 1
 515 475 443 472 373 459 c 1
 373 141 l 1
673 124 m 1
 745 125 817 128 887 141 c 1
 887 459 l 1
 817 472 745 475 673 476 c 1
 673 124 l 1
973 163 m 1
 1020 179 1106 219 1106 300 c 0
 1106 333 1090 397 973 437 c 1
 973 163 l 1
887 680 m 2
 887 796 972 903 1099 903 c 0
 1112 903 1126 901 1138 898 c 1
 1120 828 l 1
 1104 832 1088 834 1072 834 c 0
 1005 834 973 756 973 680 c 2
 973 503 l 1
 994 496 1015 489 1035 480 c 0
 1110 447 1170 381 1170 300 c 0
 1170 241 1140 149 973 97 c 1
 973 -75 l 2
 973 -201 871 -303 745 -303 c 0
 743 -303 742 -303 740 -303 c 1
 730 -232 l 1
 778 -232 l 2
 849 -232 887 -154 887 -75 c 2
 887 76 l 1
 817 64 745 61 673 60 c 1
 673 -75 l 2
 673 -201 571 -303 445 -303 c 0
 443 -303 442 -303 440 -303 c 1
 430 -232 l 1
 478 -232 l 2
 549 -232 587 -154 587 -75 c 2
 587 60 l 1
 515 61 443 64 373 76 c 1
 373 -75 l 2
 373 -201 271 -303 145 -303 c 0
 143 -303 142 -303 140 -303 c 1
 130 -232 l 1
 178 -232 l 2
 249 -232 287 -154 287 -75 c 2
 287 97 l 1
 266 104 245 111 225 120 c 0
 150 153 90 219 90 300 c 0
 90 359 120 451 287 503 c 1
 287 680 l 2
 287 796 372 903 499 903 c 0
 512 903 526 901 538 898 c 1
 520 828 l 1
 504 832 488 834 472 834 c 0
 405 834 373 756 373 680 c 2
 373 524 l 1
 443 536 515 539 587 540 c 1
 587 680 l 2
 587 796 672 903 799 903 c 0
 812 903 826 901 838 898 c 1
 820 828 l 1
 804 832 788 834 772 834 c 0
 705 834 673 756 673 680 c 2
 673 540 l 1
 745 539 817 536 887 524 c 1
 887 680 l 2
EndSplineSet
EndChar

StartChar: uni2230.disp
Encoding: 93 -1 93
Width: 1864
Flags: HW
HStem: -786 83<173 303.641 713 843.641 1253 1383.64> -98 76<571 707.514 1416.49 1553> 622 76<571 707.514 1416.49 1553> 1305 81<717.796 871.293 1257.8 1411.29 1797.8 1951.29>
VStem: 90 74<207.575 392.425> 473 98<-519.028 -98 3 597 698 1125.81> 1013 98<-519.028 -132 -58 658 732 1125.81> 1553 98<-519.028 -98 3 597 698 1125.81> 1960 74<207.575 392.425>
LayerCount: 2
Fore
SplineSet
473 3 m 1
 473 597 l 1
 445 588 417 579 389 568 c 0
 268 520 164 426 164 300 c 0
 164 174 268 80 389 32 c 0
 417 21 445 12 473 3 c 1
571 -22 m 1
 715 -52 865 -57 1013 -58 c 1
 1013 658 l 1
 865 657 715 652 571 622 c 1
 571 -22 l 1
1111 -58 m 1
 1259 -57 1409 -52 1553 -22 c 1
 1553 622 l 1
 1409 652 1259 657 1111 658 c 1
 1111 -58 l 1
1960 300 m 0
 1960 426 1856 520 1735 568 c 0
 1707 579 1679 588 1651 597 c 1
 1651 3 l 1
 1679 12 1707 21 1735 32 c 0
 1856 80 1960 174 1960 300 c 0
1553 998 m 2
 1553 1221 1724 1386 1906 1386 c 1
 1973 1380 l 1
 1951 1299 l 1
 1925 1303 1898 1305 1871 1305 c 0
 1730 1305 1651 1154 1651 998 c 2
 1651 674 l 1
 1699 661 1745 644 1791 624 c 0
 1927 564 2034 446 2034 300 c 0
 2034 154 1927 36 1791 -24 c 0
 1745 -44 1699 -61 1651 -74 c 1
 1651 -393 l 2
 1651 -610 1474 -786 1258 -786 c 0
 1256 -786 1255 -786 1253 -786 c 1
 1241 -703 l 1
 1323 -703 l 2
 1467 -703 1553 -551 1553 -393 c 2
 1553 -98 l 1
 1409 -126 1259 -131 1111 -132 c 1
 1111 -393 l 2
 1111 -610 934 -786 718 -786 c 0
 716 -786 715 -786 713 -786 c 1
 701 -703 l 1
 783 -703 l 2
 927 -703 1013 -551 1013 -393 c 2
 1013 -132 l 1
 865 -131 715 -126 571 -98 c 1
 571 -393 l 2
 571 -610 394 -786 178 -786 c 0
 176 -786 175 -786 173 -786 c 1
 161 -703 l 1
 243 -703 l 2
 387 -703 473 -551 473 -393 c 2
 473 -74 l 1
 425 -61 379 -44 333 -24 c 0
 198 36 90 154 90 300 c 0
 90 446 198 564 333 624 c 0
 379 644 425 661 473 674 c 1
 473 998 l 2
 473 1221 644 1386 826 1386 c 1
 893 1380 l 1
 871 1299 l 1
 845 1303 818 1305 791 1305 c 0
 650 1305 571 1154 571 998 c 2
 571 698 l 1
 715 726 865 731 1013 732 c 1
 1013 998 l 2
 1013 1221 1184 1386 1366 1386 c 1
 1433 1380 l 1
 1411 1299 l 1
 1385 1303 1358 1305 1331 1305 c 0
 1190 1305 1111 1154 1111 998 c 2
 1111 732 l 1
 1259 731 1409 726 1553 698 c 1
 1553 998 l 2
EndSplineSet
EndChar

StartChar: uni2233
Encoding: 94 8755 94
Width: 720
Flags: HW
HStem: -303 71<140 233.781> 66 66<238.367 287 373 422.258> 473 66<239.049 287 373 422.3> 834 69<420.743 520.281>
VStem: 90 64<219.065 384.709> 287 86<-168.864 69.9048 132 473 534.57 777.102>
LayerCount: 2
Fore
SplineSet
287 473 m 1
 208 453 154 381 154 301 c 0
 154 245 187 157 287 132 c 1
 287 473 l 1
287 680 m 2
 287 796 372 903 499 903 c 0
 512 903 526 901 538 898 c 1
 520 828 l 1
 504 832 488 834 472 834 c 0
 405 834 373 756 373 680 c 2
 373 539 l 1
 402 534 499 508 548 404 c 1
 490 377 l 1
 468 423 426 460 373 473 c 1
 373 132 l 1
 402 139 470 165 497 248 c 1
 434 211 l 1
 407 257 l 1
 548 339 l 1
 569 302 l 1
 570 302 l 1
 570 301 l 2
 629 198 l 1
 583 171 l 1
 555 219 l 1
 547 197 501 90 373 66 c 1
 373 -75 l 2
 373 -201 271 -303 145 -303 c 0
 143 -303 142 -303 140 -303 c 1
 130 -232 l 1
 178 -232 l 2
 249 -232 287 -154 287 -75 c 2
 287 66 l 1
 180 86 90 178 90 303 c 0
 90 426 181 520 287 539 c 1
 287 680 l 2
EndSplineSet
EndChar

StartChar: uni2233.disp
Encoding: 95 -1 95
Width: 892
Flags: HW
HStem: -786 83<173 303.641> -127 75<396.25 473 571 645.094> 657 75<394.24 473 571 652.262> 1305 81<717.796 871.293>
VStem: 90 74<181.801 421.607> 473 98<-519.028 -124.708 -52 657 729.455 1125.81>
LayerCount: 2
Fore
SplineSet
473 657 m 1
 294 632 164 479 164 303 c 0
 164 125 294 -27 473 -52 c 1
 473 657 l 1
473 998 m 2
 473 1221 644 1386 826 1386 c 1
 893 1380 l 1
 871 1299 l 1
 845 1303 818 1305 791 1305 c 0
 650 1305 571 1154 571 998 c 2
 571 732 l 1
 620 726 817 692 914 485 c 1
 846 454 l 1
 795 564 691 640 571 657 c 1
 571 -52 l 1
 606 -47 789 -13 858 180 c 0
 866 200 871 221 875 242 c 1
 721 154 l 1
 690 207 l 1
 928 345 l 1
 952 303 l 1
 954 303 l 1
 954 302 954 301 954 300 c 2
 1066 106 l 1
 1012 76 l 1
 941 199 l 1
 898 26 752 -106 571 -127 c 1
 571 -393 l 2
 571 -610 394 -786 178 -786 c 0
 176 -786 175 -786 173 -786 c 1
 161 -703 l 1
 243 -703 l 2
 387 -703 473 -551 473 -393 c 2
 473 -127 l 1
 263 -103 90 75 90 302 c 0
 90 523 256 707 473 732 c 1
 473 998 l 2
EndSplineSet
EndChar

StartChar: uni2232.alt
Encoding: 96 -1 96
Width: 720
Flags: HW
HStem: -303 71<140 233.781> 66 66<238.367 287 373 422.623> 473 66<239.049 287 373 422.706> 834 69<420.743 520.281>
VStem: 90 64<219.065 384.709> 287 86<-168.864 69.9112 132 473 534.57 777.102>
LayerCount: 2
Fore
SplineSet
287 473 m 1
 208 453 154 381 154 301 c 0
 154 245 187 157 287 132 c 1
 287 473 l 1
373 539 m 1
 458 523 528 462 555 386 c 1
 583 433 l 1
 629 407 l 1
 570 304 l 2
 570 303 570 303 570 302 c 1
 569 302 l 1
 548 266 l 1
 407 347 l 1
 434 393 l 1
 497 357 l 1
 491 376 463 450 373 473 c 1
 373 132 l 1
 401 139 467 164 495 242 c 1
 556 220 l 1
 548 198 502 90 373 66 c 1
 373 -75 l 2
 373 -201 271 -303 145 -303 c 0
 143 -303 142 -303 140 -303 c 1
 130 -232 l 1
 178 -232 l 2
 249 -232 287 -154 287 -75 c 2
 287 66 l 1
 180 86 90 178 90 303 c 0
 90 426 181 520 287 539 c 1
 287 680 l 2
 287 796 372 903 499 903 c 0
 512 903 526 901 538 898 c 1
 520 828 l 1
 504 832 488 834 472 834 c 0
 405 834 373 756 373 680 c 2
 373 539 l 1
EndSplineSet
EndChar

StartChar: uni2232.alt.disp
Encoding: 97 -1 97
Width: 892
Flags: HW
HStem: -786 83<173 303.641> -127 75<396.25 473 571 648.275> 657 75<394.24 473 571 651.085> 1305 81<717.796 871.293>
VStem: 90 74<181.801 421.607> 473 98<-519.028 -124.843 -52 657 729.81 1125.81>
LayerCount: 2
Fore
SplineSet
473 657 m 1
 294 632 164 479 164 303 c 0
 164 125 294 -27 473 -52 c 1
 473 657 l 1
571 732 m 1
 747 712 897 584 941 407 c 1
 1012 530 l 1
 1066 499 l 1
 954 305 l 2
 954 304 954 304 954 303 c 1
 953 303 l 1
 928 260 l 1
 690 398 l 1
 721 452 l 1
 875 363 l 1
 851 506 735 634 571 657 c 1
 571 -52 l 1
 606 -47 789 -13 858 180 c 1
 928 155 l 1
 876 10 742 -107 571 -127 c 1
 571 -393 l 2
 571 -610 394 -786 178 -786 c 0
 176 -786 175 -786 173 -786 c 1
 161 -703 l 1
 243 -703 l 2
 387 -703 473 -551 473 -393 c 2
 473 -127 l 1
 263 -103 90 75 90 302 c 0
 90 523 256 707 473 732 c 1
 473 998 l 2
 473 1221 644 1386 826 1386 c 1
 893 1380 l 1
 871 1299 l 1
 845 1303 818 1305 791 1305 c 0
 650 1305 571 1154 571 998 c 2
 571 732 l 1
EndSplineSet
EndChar

StartChar: uni2233.alt
Encoding: 98 -1 98
Width: 720
Flags: HW
HStem: -303 71<200 293.781> 66 66<297.467 347 433 482.153> 473 66<298.105 347 433 480.965> 834 69<480.743 580.281>
VStem: 347 86<-168.864 70.3643 132 473 535.236 777.102> 566 64<219.284 384.768>
LayerCount: 2
Fore
SplineSet
433 132 m 1
 515 153 566 225 566 303 c 0
 566 360 532 448 433 473 c 1
 433 132 l 1
630 302 m 0
 630 173 534 85 433 66 c 1
 433 -75 l 2
 433 -201 331 -303 205 -303 c 0
 203 -303 202 -303 200 -303 c 1
 190 -232 l 1
 238 -232 l 2
 309 -232 347 -154 347 -75 c 2
 347 66 l 1
 318 71 220 97 172 201 c 1
 230 228 l 1
 252 182 294 145 347 132 c 1
 347 473 l 1
 322 466 251 441 223 357 c 1
 286 393 l 1
 313 347 l 1
 172 266 l 1
 151 302 l 1
 150 302 l 1
 150 303 150 303 150 304 c 2
 91 407 l 1
 137 433 l 1
 165 386 l 1
 174 410 220 516 347 539 c 1
 347 680 l 2
 347 796 432 903 559 903 c 0
 572 903 586 901 598 898 c 1
 580 828 l 1
 564 832 548 834 532 834 c 0
 465 834 433 756 433 680 c 2
 433 539 l 1
 538 520 630 429 630 302 c 0
EndSplineSet
EndChar

StartChar: uni2233.alt.disp
Encoding: 99 -1 99
Width: 892
Flags: HW
HStem: -786 83<281 411.641> -127 75<499.738 581 679 758.334> 657 75<503.084 581 679 756.898> 1305 81<825.796 979.293>
VStem: 581 98<-519.028 -124.431 -52 657 729.813 1125.81> 988 74<183.764 422.457>
LayerCount: 2
Fore
SplineSet
679 -52 m 1
 858 -27 988 126 988 302 c 0
 988 480 858 632 679 657 c 1
 679 -52 l 1
1062 303 m 0
 1062 84 898 -102 679 -127 c 1
 679 -393 l 2
 679 -610 502 -786 286 -786 c 0
 284 -786 283 -786 281 -786 c 1
 269 -703 l 1
 351 -703 l 2
 495 -703 581 -551 581 -393 c 2
 581 -127 l 1
 532 -121 335 -86 238 120 c 1
 306 151 l 1
 357 41 461 -35 581 -52 c 1
 581 657 l 1
 546 652 363 618 294 425 c 0
 286 405 281 384 277 363 c 1
 431 452 l 1
 462 398 l 1
 224 260 l 1
 199 303 l 1
 198 303 l 1
 198 304 198 304 198 305 c 2
 86 499 l 1
 140 530 l 1
 211 406 l 1
 256 585 406 712 581 732 c 1
 581 998 l 2
 581 1221 752 1386 934 1386 c 1
 1001 1380 l 1
 979 1299 l 1
 953 1303 926 1305 899 1305 c 0
 758 1305 679 1154 679 998 c 2
 679 732 l 1
 893 708 1062 526 1062 303 c 0
EndSplineSet
EndChar

StartChar: uni2232
Encoding: 100 8754 100
Width: 720
Flags: HW
HStem: -303 71<200 293.781> 66 66<297.206 347 433 482.153> 473 66<297.74 347 433 480.965> 834 69<480.743 580.281>
VStem: 347 86<-168.864 70.3643 132 473 535.095 777.102> 566 64<219.284 384.768>
LayerCount: 2
Fore
SplineSet
433 132 m 1
 515 153 566 225 566 303 c 0
 566 360 532 448 433 473 c 1
 433 132 l 1
347 66 m 1
 270 80 195 134 165 219 c 1
 137 171 l 1
 91 198 l 1
 150 301 l 2
 150 302 l 1
 151 302 l 1
 172 339 l 1
 313 257 l 1
 286 211 l 1
 223 248 l 1
 237 204 276 150 347 132 c 1
 347 473 l 1
 323 467 254 443 225 362 c 1
 164 384 l 1
 173 408 219 515 347 539 c 1
 347 680 l 2
 347 796 432 903 559 903 c 0
 572 903 586 901 598 898 c 1
 580 828 l 1
 564 832 548 834 532 834 c 0
 465 834 433 756 433 680 c 2
 433 539 l 1
 538 520 630 429 630 302 c 0
 630 173 534 85 433 66 c 1
 433 -75 l 2
 433 -201 331 -303 205 -303 c 0
 203 -303 202 -303 200 -303 c 1
 190 -232 l 1
 238 -232 l 2
 309 -232 347 -154 347 -75 c 2
 347 66 l 1
EndSplineSet
EndChar

StartChar: uni2232.disp
Encoding: 101 -1 101
Width: 892
Flags: HW
HStem: -786 83<281 411.641> -127 75<503.013 581 679 758.334> 657 75<503.084 581 679 756.898> 1305 81<825.796 979.293>
VStem: 581 98<-519.028 -124.921 -52 657 729.956 1125.81> 988 74<183.764 422.457>
LayerCount: 2
Fore
SplineSet
679 -52 m 1
 858 -27 988 126 988 302 c 0
 988 480 858 632 679 657 c 1
 679 -52 l 1
581 -127 m 1
 414 -108 257 13 211 199 c 1
 140 76 l 1
 86 106 l 1
 198 300 l 2
 198 301 198 302 198 303 c 1
 200 303 l 1
 224 345 l 1
 462 207 l 1
 431 154 l 1
 277 242 l 1
 299 114 403 -28 581 -52 c 1
 581 657 l 1
 546 652 363 618 294 425 c 1
 224 450 l 1
 280 604 419 713 581 732 c 1
 581 998 l 2
 581 1221 752 1386 934 1386 c 1
 1001 1380 l 1
 979 1299 l 1
 953 1303 926 1305 899 1305 c 0
 758 1305 679 1154 679 998 c 2
 679 732 l 1
 893 708 1062 526 1062 303 c 0
 1062 84 898 -102 679 -127 c 1
 679 -393 l 2
 679 -610 502 -786 286 -786 c 0
 284 -786 283 -786 281 -786 c 1
 269 -703 l 1
 351 -703 l 2
 495 -703 581 -551 581 -393 c 2
 581 -127 l 1
EndSplineSet
EndChar

StartChar: uni2A0B
Encoding: 102 10763 102
Width: 630
Flags: HW
HStem: -303 71<140 233.781> 20 60<271.857 287 373 397.5> 536 49<198 287 373 463.352> 834 69<420.743 520.281>
VStem: 287 86<-168.864 20 86 217 409 534 585 777.102> 492 27<475 497.984> 506 26<111.047 128.615>
LayerCount: 2
Fore
SplineSet
287 217 m 1xf8
 181 73 l 1
 287 80 l 1
 287 217 l 1xf8
287 535 m 1
 198 536 l 1
 287 409 l 1
 287 535 l 1
287 680 m 2
 287 796 372 903 499 903 c 0
 512 903 526 901 538 898 c 1
 520 828 l 1
 504 832 488 834 472 834 c 0
 405 834 373 756 373 680 c 2
 373 585 l 1
 519 585 l 1
 519 475 l 1
 492 475 l 1xfc
 478 508 449 533 414 533 c 2
 373 534 l 1
 373 86 l 1
 401 88 l 2
 445 91 497 94 506 133 c 1
 532 127 l 1xfa
 502 20 l 1
 373 20 l 1
 373 -75 l 2
 373 -201 271 -303 145 -303 c 0
 143 -303 142 -303 140 -303 c 1
 130 -232 l 1
 178 -232 l 2
 249 -232 287 -154 287 -75 c 2
 287 20 l 1
 111 20 l 1
 99 73 l 1
 261 294 l 1
 99 525 l 1
 112 585 l 1
 287 585 l 1
 287 680 l 2
EndSplineSet
EndChar

StartChar: uni2A0B.disp
Encoding: 103 -1 103
Width: 882
Flags: HW
HStem: -786 83<173 303.641> -206 72<369 473 571 672> -206 62<213 395> 753 59<232 473 571 797.917> 1305 81<717.796 871.293>
VStem: 473 98<-519.028 -206 -131 207 420 753 812 1125.81> 844 31<684 707.421>
LayerCount: 2
Fore
SplineSet
473 207 m 1xde
 213 -144 l 1xbe
 473 -134 l 1
 473 207 l 1xde
473 753 m 1
 232 755 l 1
 473 420 l 1
 473 753 l 1
473 998 m 2
 473 1221 644 1386 826 1386 c 1
 893 1380 l 1
 871 1299 l 1
 845 1303 818 1305 791 1305 c 0
 650 1305 571 1154 571 998 c 2
 571 812 l 1
 875 812 l 1
 875 684 l 1
 844 684 l 1
 820 741 750 751 686 752 c 2
 571 753 l 1
 571 -131 l 1
 672 -127 l 2
 749 -124 850 -120 860 -75 c 1
 890 -82 l 1
 856 -206 l 1xbe
 571 -206 l 1
 571 -393 l 2
 571 -610 394 -786 178 -786 c 0
 176 -786 175 -786 173 -786 c 1
 161 -703 l 1
 243 -703 l 2
 387 -703 473 -551 473 -393 c 2
 473 -206 l 1xde
 134 -206 l 1
 119 -144 l 1
 443 293 l 1
 119 743 l 1
 135 812 l 1
 473 812 l 1
 473 998 l 2
EndSplineSet
EndChar

StartChar: uni2A0B.sf
Encoding: 104 -1 104
Width: 630
Flags: HW
HStem: -303 71<140 233.781> 20 73<195 287 373 519> 512 73<195 287 373 519> 834 69<420.743 520.281>
VStem: 287 86<-168.864 20 93 212 393 512 585 777.102>
LayerCount: 2
Fore
SplineSet
287 212 m 1
 195 93 l 1
 287 93 l 1
 287 212 l 1
287 512 m 1
 195 512 l 1
 287 393 l 1
 287 512 l 1
287 680 m 2
 287 796 372 903 499 903 c 0
 512 903 526 901 538 898 c 1
 520 828 l 1
 504 832 488 834 472 834 c 0
 405 834 373 756 373 680 c 2
 373 585 l 1
 519 585 l 1
 519 512 l 1
 373 512 l 1
 373 93 l 1
 519 93 l 1
 519 20 l 1
 373 20 l 1
 373 -75 l 2
 373 -201 271 -303 145 -303 c 0
 143 -303 142 -303 140 -303 c 1
 130 -232 l 1
 178 -232 l 2
 249 -232 287 -154 287 -75 c 2
 287 20 l 1
 99 20 l 1
 99 93 l 1
 260 302 l 1
 99 512 l 1
 99 585 l 1
 287 585 l 1
 287 680 l 2
EndSplineSet
EndChar

StartChar: uni2A0B.sf.disp
Encoding: 105 -1 105
Width: 882
Flags: HW
HStem: -786 83<173 303.641> -206 85<229 473 571 875> 727 85<229 473 571 875> 1305 81<717.796 871.293>
VStem: 473 98<-519.028 -206 -121 199 407 727 812 1125.81>
LayerCount: 2
Fore
SplineSet
473 199 m 1
 229 -121 l 1
 473 -121 l 1
 473 199 l 1
473 727 m 1
 229 727 l 1
 473 407 l 1
 473 727 l 1
473 998 m 2
 473 1221 644 1386 826 1386 c 1
 893 1380 l 1
 871 1299 l 1
 845 1303 818 1305 791 1305 c 0
 650 1305 571 1154 571 998 c 2
 571 812 l 1
 875 812 l 1
 875 727 l 1
 571 727 l 1
 571 -121 l 1
 875 -121 l 1
 875 -206 l 1
 571 -206 l 1
 571 -393 l 2
 571 -610 394 -786 178 -786 c 0
 176 -786 175 -786 173 -786 c 1
 161 -703 l 1
 243 -703 l 2
 387 -703 473 -551 473 -393 c 2
 473 -206 l 1
 119 -206 l 1
 119 -121 l 1
 443 303 l 1
 119 727 l 1
 119 812 l 1
 473 812 l 1
 473 998 l 2
EndSplineSet
EndChar

StartChar: uni0302
Encoding: 114 770 106
Width: 420
Flags: HW
HStem: 661 157
LayerCount: 2
Fore
SplineSet
-13 719 m 1
 210 818 l 1
 433 719 l 1
 407 661 l 1
 210 742 l 1
 13 661 l 1
 -13 719 l 1
EndSplineSet
EndChar

StartChar: uni0302.big1
Encoding: 115 -1 107
Width: 756
Flags: HW
HStem: 659 62<5.41935 20.7835 735.216 750.581>
LayerCount: 2
Fore
SplineSet
-7 721 m 1
 378 818 l 1
 763 721 l 1
 749 659 l 1
 378 742 l 1
 7 659 l 1
 -7 721 l 1
EndSplineSet
EndChar

StartChar: uni0302.big2
Encoding: 116 -1 108
Width: 1092
Flags: HW
HStem: 658 160
LayerCount: 2
Fore
SplineSet
-5 722 m 1
 546 818 l 1
 1097 722 l 1
 1087 658 l 1
 546 742 l 1
 5 658 l 1
 -5 722 l 1
EndSplineSet
EndChar

StartChar: uni0302.big3
Encoding: 117 -1 109
Width: 1428
Flags: HW
HStem: 658 160
LayerCount: 2
Fore
SplineSet
-4 722 m 1
 714 818 l 1
 1432 722 l 1
 1424 658 l 1
 714 742 l 1
 4 658 l 1
 -4 722 l 1
EndSplineSet
EndChar

StartChar: uni0302.big4
Encoding: 118 -1 110
Width: 1764
Flags: HW
HStem: 658 160
LayerCount: 2
Fore
SplineSet
-3 722 m 1
 882 818 l 1
 1767 722 l 1
 1761 658 l 1
 882 742 l 1
 3 658 l 1
 -3 722 l 1
EndSplineSet
EndChar

StartChar: uni0302.big5
Encoding: 119 -1 111
Width: 2100
Flags: HW
HStem: 658 160
LayerCount: 2
Fore
SplineSet
-3 722 m 1
 1050 818 l 1
 2103 722 l 1
 2097 658 l 1
 1050 742 l 1
 3 658 l 1
 -3 722 l 1
EndSplineSet
EndChar

StartChar: uni0303
Encoding: 120 771 112
Width: 420
Flags: HW
HStem: 658 64<251.087 353.346> 748 64<66.6544 168.913>
LayerCount: 2
Fore
SplineSet
304 658 m 0
 212 658 179 748 116 748 c 0
 84 748 61 722 39 699 c 1
 0 735 l 1
 33 771 67 812 116 812 c 0
 208 812 241 722 304 722 c 0
 336 722 359 748 381 771 c 1
 420 735 l 1
 387 699 353 658 304 658 c 0
EndSplineSet
EndChar

StartChar: uni0303.big1
Encoding: 121 -1 113
Width: 756
Flags: HW
HStem: 658 64<443.048 653.932> 748 64<102.068 312.952>
LayerCount: 2
Fore
SplineSet
556 658 m 0
 399 658 339 748 200 748 c 0
 138 748 80 721 27 689 c 1
 0 735 l 1
 62 772 127 812 200 812 c 0
 357 812 417 722 556 722 c 0
 618 722 676 749 729 781 c 1
 756 735 l 1
 694 698 629 658 556 658 c 0
EndSplineSet
EndChar

StartChar: uni0303.big2
Encoding: 122 -1 114
Width: 1092
Flags: HW
HStem: 658 64<640.388 943.377> 748 64<148.811 451.612>
LayerCount: 2
Fore
SplineSet
808 658 m 0
 594 658 484 748 284 748 c 0
 193 748 105 720 20 686 c 1
 0 735 l 1
 91 773 185 812 284 812 c 0
 498 812 608 722 808 722 c 0
 899 722 988 750 1072 784 c 1
 1092 735 l 1
 1001 697 907 658 808 658 c 0
EndSplineSet
EndChar

StartChar: uni0303.big3
Encoding: 123 -1 115
Width: 1428
Flags: HW
HStem: 658 64<836.418 1233.75> 748 64<194.252 591.582>
LayerCount: 2
Fore
SplineSet
1060 658 m 0
 796 658 626 748 368 748 c 0
 248 748 130 720 16 684 c 1
 0 735 l 1
 120 773 242 812 368 812 c 0
 632 812 802 722 1060 722 c 0
 1180 722 1298 750 1412 786 c 1
 1428 735 l 1
 1308 697 1186 658 1060 658 c 0
EndSplineSet
EndChar

StartChar: uni0303.big4
Encoding: 124 -1 116
Width: 1764
Flags: HW
HStem: 658 64<1086.76 1526.15> 748 64<237.85 677.244>
LayerCount: 2
Fore
SplineSet
1312 658 m 0
 1009 658 748 748 452 748 c 0
 303 748 157 720 13 683 c 1
 0 735 l 1
 149 773 298 812 452 812 c 0
 755 812 1016 722 1312 722 c 0
 1461 722 1607 750 1751 787 c 1
 1764 735 l 1
 1615 697 1466 658 1312 658 c 0
EndSplineSet
EndChar

StartChar: uni0303.big5
Encoding: 125 -1 117
Width: 2100
Flags: HW
HStem: 658 64<1344.51 1789.29> 748 64<310.713 755.492>
LayerCount: 2
Fore
SplineSet
1564 658 m 0
 1236 658 856 748 536 748 c 0
 359 748 184 720 11 683 c 1
 0 735 l 1
 177 773 355 812 536 812 c 0
 864 812 1244 722 1564 722 c 0
 1741 722 1916 750 2089 787 c 1
 2100 735 l 1
 1923 697 1745 658 1564 658 c 0
EndSplineSet
EndChar

StartChar: uni0311
Encoding: 126 785 118
Width: 420
Flags: HW
HStem: 748 64<123.023 296.977>
LayerCount: 2
Fore
SplineSet
47 668 m 1
 0 712 l 1
 55 771 129 812 210 812 c 0
 291 812 365 771 420 712 c 1
 373 668 l 1
 330 714 273 748 210 748 c 0
 147 748 90 714 47 668 c 1
EndSplineSet
EndChar

StartChar: uni0311.big1
Encoding: 127 -1 119
Width: 756
Flags: HW
HStem: 748 64<193.956 562.044>
LayerCount: 2
Fore
SplineSet
33 663 m 1
 0 717 l 1
 114 785 246 812 378 812 c 0
 510 812 642 785 756 717 c 1
 723 663 l 1
 619 724 499 748 378 748 c 0
 257 748 137 724 33 663 c 1
EndSplineSet
EndChar

StartChar: uni0311.big2
Encoding: 128 -1 120
Width: 1092
Flags: HW
HStem: 748 64<320.42 771.58>
LayerCount: 2
Fore
SplineSet
24 660 m 1
 0 720 l 1
 172 791 360 812 546 812 c 0
 732 812 920 791 1092 720 c 1
 1068 660 l 1
 903 728 724 748 546 748 c 0
 368 748 189 728 24 660 c 1
EndSplineSet
EndChar

StartChar: uni0311.big3
Encoding: 129 -1 121
Width: 1428
Flags: HW
HStem: 659 62<16.8548 71.7135 1356.29 1411.15> 748 64<490.863 937.137>
LayerCount: 2
Fore
SplineSet
19 659 m 1
 0 721 l 1
 230 793 473 812 714 812 c 0
 955 812 1198 793 1428 721 c 1
 1409 659 l 1
 1185 730 949 748 714 748 c 0
 479 748 243 730 19 659 c 1
EndSplineSet
EndChar

StartChar: uni0311.big4
Encoding: 130 -1 122
Width: 1764
Flags: HW
HStem: 659 62<14.1935 81.2299 1682.77 1749.81> 748 64<661.484 1102.52>
LayerCount: 2
Fore
SplineSet
16 659 m 1
 0 721 l 1
 288 794 585 812 882 812 c 0
 1179 812 1476 794 1764 721 c 1
 1748 659 l 1
 1466 731 1173 748 882 748 c 0
 591 748 298 731 16 659 c 1
EndSplineSet
EndChar

StartChar: uni0311.big5
Encoding: 131 -1 123
Width: 2100
Flags: HW
HStem: 659 62<11.5323 97.2348 2002.77 2088.47> 748 64<828.575 1271.43>
LayerCount: 2
Fore
SplineSet
13 659 m 1
 0 721 l 1
 345 795 698 812 1050 812 c 0
 1402 812 1755 795 2100 721 c 1
 2087 659 l 1
 1746 732 1398 748 1050 748 c 0
 702 748 354 732 13 659 c 1
EndSplineSet
EndChar

StartChar: uni20D7
Encoding: 132 8407 124
Width: 450
Flags: HW
HStem: 714 48<90 368>
LayerCount: 2
Fore
SplineSet
460 738 m 1
 363 641 l 1
 329 675 l 1
 368 714 l 1
 90 714 l 1
 90 762 l 1
 368 762 l 1
 329 801 l 1
 363 835 l 1
 460 738 l 1
EndSplineSet
EndChar

StartChar: uni0335
Encoding: 133 821 125
Width: 300
Flags: HW
HStem: 311 54<2 298>
VStem: -2 304
LayerCount: 2
Fore
SplineSet
2 365 m 1
 302 365 l 1
 298 311 l 1
 -2 311 l 1
 2 365 l 1
EndSplineSet
EndChar

StartChar: uni0337
Encoding: 134 823 126
Width: 300
Flags: HW
HStem: 242 192
VStem: -3 306
LayerCount: 2
Fore
SplineSet
3 306 m 1
 303 434 l 1
 297 370 l 1
 -3 242 l 1
 3 306 l 1
EndSplineSet
EndChar

StartChar: uni0338
Encoding: 135 824 127
Width: 480
Flags: HW
LayerCount: 2
Fore
SplineSet
476 680 m 1
 64 -451 l 1
 4 -429 l 1
 416 702 l 1
 476 680 l 1
EndSplineSet
EndChar
